<svg width="19" height="21" viewBox="0 0 19 21" fill="none" xmlns="http://www.w3.org/2000/svg">
<path d="M3.75006 9.54998C3.75006 6.86297 3.75006 5.51947 4.58481 4.68472C5.41955 3.84998 6.76306 3.84998 9.45006 3.84998H12.3001C14.9871 3.84998 16.3306 3.84998 17.1653 4.68472C18.0001 5.51947 18.0001 6.86297 18.0001 9.54998V14.3C18.0001 16.987 18.0001 18.3305 17.1653 19.1652C16.3306 20 14.9871 20 12.3001 20H9.45006C6.76306 20 5.41955 20 4.58481 19.1652C3.75006 18.3305 3.75006 16.987 3.75006 14.3V9.54998Z" stroke="#155AE0" stroke-width="1.5"/>
<path d="M3.75002 17.15C2.17601 17.15 0.900024 15.874 0.900024 14.3V8.6C0.900024 5.01733 0.900024 3.22599 2.01302 2.11299C3.12601 1 4.91735 1 8.50002 1H12.3C13.874 1 15.15 2.27599 15.15 3.85" stroke="#155AE0" stroke-width="1.5"/>
</svg>
