<svg width="18" height="14" viewBox="0 0 18 14" fill="none" xmlns="http://www.w3.org/2000/svg">
<path d="M2.01991 9.30699C1.33997 8.53406 1 8.14759 1 7.00002C1 5.85246 1.33997 5.46599 2.01991 4.69306C3.37757 3.14972 5.65449 1.40002 9 1.40002C12.3455 1.40002 14.6224 3.14972 15.9801 4.69306C16.66 5.46599 17 5.85246 17 7.00002C17 8.14759 16.66 8.53406 15.9801 9.30699C14.6224 10.8503 12.3455 12.6 9 12.6C5.65449 12.6 3.37757 10.8503 2.01991 9.30699Z" stroke="white" stroke-width="1.5"/>
<path d="M11.4 7.00002C11.4 8.15982 10.3255 9.10002 9.00001 9.10002C7.67452 9.10002 6.60001 8.15982 6.60001 7.00002C6.60001 5.84023 7.67452 4.90002 9.00001 4.90002C10.3255 4.90002 11.4 5.84023 11.4 7.00002Z" stroke="white" stroke-width="1.5"/>
</svg>
