<svg width="92" height="92" viewBox="0 0 92 92" fill="none" xmlns="http://www.w3.org/2000/svg">
<path d="M19.8748 2.56128V0.870856C19.8748 0.389913 20.2646 3.21865e-05 20.7456 3.21865e-05H21.5651C22.0461 3.21865e-05 22.4359 0.389913 22.4359 0.870856V2.56128H19.8748Z" fill="white"/>
<path d="M27.4046 2.56128H25.7142C25.2333 2.56128 24.8434 2.1714 24.8434 1.69046V0.870856C24.8434 0.389913 25.2333 3.21865e-05 25.7142 3.21865e-05H27.4046V2.56128Z" fill="white"/>
<path d="M29.8889 0H27.3278V2.56125H29.8889V0Z" fill="white"/>
<path d="M29.812 2.56128V3.21865e-05H31.5024C31.9833 3.21865e-05 32.3732 0.389913 32.3732 0.870856V2.56128H29.812Z" fill="white"/>
<path d="M39.7495 2.56128V0.870856C39.7495 0.389913 40.1393 3.21865e-05 40.6203 3.21865e-05H41.4398C41.9208 3.21865e-05 42.3106 0.389913 42.3106 0.870856V2.56128H39.7495Z" fill="white"/>
<path d="M46.4981 2.50998V2.56121H47.2793V1.78003H47.2281C47.2281 2.18471 46.9002 2.50998 46.4981 2.50998Z" fill="white"/>
<path d="M49.7636 2.56128L47.2024 2.56128V0.870856C47.2024 0.389913 47.5923 3.21865e-05 48.0732 3.21865e-05H49.7636V2.56128Z" fill="white"/>
<path d="M49.6868 2.56128V3.21865e-05H51.3772C51.8581 3.21865e-05 52.248 0.389913 52.248 0.870856V2.56128H49.6868Z" fill="white"/>
<path d="M54.6555 0.732517V1.83129C54.6555 2.23597 54.9833 2.56125 55.388 2.56125H56.4867C56.894 2.56125 57.2192 2.23341 57.2192 1.82873V0.732517C57.2167 0.325278 56.8888 0 56.4842 0H55.388C54.9833 0 54.6555 0.32784 54.6555 0.732517Z" fill="white"/>
<path d="M62.1085 0.732517V1.83129C62.1085 2.23597 62.4364 2.56125 62.841 2.56125H63.9398C64.347 2.56125 64.6723 2.23341 64.6723 1.82873V0.732517C64.6697 0.325278 64.3419 0 63.9372 0H62.841C62.4364 0 62.1085 0.32784 62.1085 0.732517Z" fill="white"/>
<path d="M66.3728 2.50998V2.56121H67.154V1.78003H67.1028C67.1028 2.18471 66.7749 2.50998 66.3728 2.50998Z" fill="white"/>
<path d="M69.6384 2.56128L67.0772 2.56128V0.870856C67.0772 0.389913 67.4671 3.21865e-05 67.948 3.21865e-05H69.6384V2.56128Z" fill="white"/>
<path d="M69.5615 2.56128V3.21865e-05H71.2519C71.7328 3.21865e-05 72.1227 0.389913 72.1227 0.870856V2.56128H69.5615Z" fill="white"/>
<path d="M22.4359 2.4845H19.8748V5.04574H22.4359V2.4845Z" fill="white"/>
<path d="M22.3591 5.04553V3.35511C22.3591 2.87417 22.749 2.48429 23.2299 2.48429H24.0495C24.5304 2.48429 24.9203 2.87417 24.9203 3.35511V5.04553H22.3591Z" fill="white"/>
<path d="M29.889 2.4845V5.04574H28.1986C27.7177 5.04574 27.3278 4.65586 27.3278 4.17492V2.4845H29.889Z" fill="white"/>
<path d="M32.3732 2.4845H29.812V5.04574H32.3732V2.4845Z" fill="white"/>
<path d="M34.8576 2.4845H32.2964V5.04574H34.8576V2.4845Z" fill="white"/>
<path d="M34.7808 5.04553V3.35511C34.7808 2.87417 35.1707 2.48429 35.6516 2.48429H36.4712C36.9521 2.48429 37.342 2.87417 37.342 3.35511V5.04553H34.7808Z" fill="white"/>
<path d="M42.3107 2.4845H39.7495V5.04574H42.3107V2.4845Z" fill="white"/>
<path d="M44.795 2.4845H42.2338V5.04574H44.795V2.4845Z" fill="white"/>
<path d="M47.2793 2.4845H44.7181V5.04574H47.2793V2.4845Z" fill="white"/>
<path d="M49.7636 2.4845H47.2024V5.04574H49.7636V2.4845Z" fill="white"/>
<path d="M52.248 2.4845H49.6868V5.04574H52.248V2.4845Z" fill="white"/>
<path d="M67.154 5.04553H64.5928V3.35511C64.5928 2.87417 64.9827 2.48429 65.4636 2.48429H67.154V5.04553Z" fill="white"/>
<path d="M69.6384 2.4845H67.0772V5.04574H69.6384V2.4845Z" fill="white"/>
<path d="M72.1227 2.4845H69.5615V5.04574H72.1227V2.4845Z" fill="white"/>
<path d="M22.4359 4.96875V6.65917C22.4359 7.14012 22.046 7.53 21.5651 7.53H20.7455C20.2646 7.53 19.8747 7.14012 19.8747 6.65917V4.96875H22.4359Z" fill="white"/>
<path d="M24.8434 7.53015V5.83973C24.8434 5.35879 25.2333 4.9689 25.7142 4.9689H26.5338C27.0147 4.9689 27.4046 5.35879 27.4046 5.83973V7.53015H24.8434Z" fill="white"/>
<path d="M32.3732 4.96875V6.65917C32.3732 7.14012 31.9834 7.53 31.5024 7.53H30.6829C30.2019 7.53 29.8121 7.14012 29.8121 6.65917V4.96875H32.3732Z" fill="white"/>
<path d="M42.3106 4.96875V6.65917C42.3106 7.14012 41.9207 7.53 41.4398 7.53H40.6202C40.1393 7.53 39.7494 7.14012 39.7494 6.65917V4.96875H42.3106Z" fill="white"/>
<path d="M52.248 4.96875V7.53H50.5576C50.0766 7.53 49.6868 7.14012 49.6868 6.65917V4.96875H52.248Z" fill="white"/>
<path d="M52.1712 7.53015V4.9689H53.8615C54.3425 4.9689 54.7323 5.35879 54.7323 5.83973V7.53015H52.1712Z" fill="white"/>
<path d="M59.701 7.53015H58.0106C57.5297 7.53015 57.1398 7.14027 57.1398 6.65933V5.83973C57.1398 5.35879 57.5297 4.9689 58.0106 4.9689H59.701V7.53015Z" fill="white"/>
<path d="M59.6242 7.53015V5.83973C59.6242 5.35879 60.014 4.9689 60.495 4.9689H61.3146C61.7955 4.9689 62.1854 5.35879 62.1854 5.83973V7.53015H59.6242Z" fill="white"/>
<path d="M63.8885 7.47873V7.52996H64.6697V6.74878H64.6185C64.6185 7.15346 64.2906 7.47873 63.8885 7.47873Z" fill="white"/>
<path d="M67.154 4.96875H64.5928V7.53H67.154V4.96875Z" fill="white"/>
<path d="M69.6384 4.96875H67.0772V7.53H69.6384V4.96875Z" fill="white"/>
<path d="M69.5615 4.96875H72.1227V6.65917C72.1227 7.14012 71.7328 7.53 71.2519 7.53H69.5615V4.96875Z" fill="white"/>
<path d="M27.4046 7.45325H24.8434V10.0145H27.4046V7.45325Z" fill="white"/>
<path d="M27.3278 10.0145V8.3241C27.3278 7.84316 27.7177 7.45328 28.1986 7.45328H29.0182C29.4991 7.45328 29.889 7.84316 29.889 8.3241V10.0145H27.3278Z" fill="white"/>
<path d="M34.8576 10.0145H33.1672C32.6863 10.0145 32.2964 9.62465 32.2964 9.1437V8.3241C32.2964 7.84316 32.6863 7.45328 33.1672 7.45328H34.8576V10.0145Z" fill="white"/>
<path d="M37.3419 7.45325H34.7808V10.0145H37.3419V7.45325Z" fill="white"/>
<path d="M37.2651 10.0145V8.3241C37.2651 7.84316 37.655 7.45328 38.1359 7.45328H38.9555C39.4364 7.45328 39.8263 7.84316 39.8263 8.3241V10.0145H37.2651Z" fill="white"/>
<path d="M44.7949 10.0145H43.1045C42.6236 10.0145 42.2337 9.62465 42.2337 9.1437V8.3241C42.2337 7.84316 42.6236 7.45328 43.1045 7.45328H44.7949V10.0145Z" fill="white"/>
<path d="M47.2793 7.45325H44.7181V10.0145H47.2793V7.45325Z" fill="white"/>
<path d="M47.2024 10.0145V8.3241C47.2024 7.84316 47.5923 7.45328 48.0732 7.45328H48.8928C49.3737 7.45328 49.7636 7.84316 49.7636 8.3241V10.0145H47.2024Z" fill="white"/>
<path d="M54.7323 7.45325V9.14367C54.7323 9.62461 54.3425 10.0145 53.8615 10.0145H53.042C52.561 10.0145 52.1712 9.62461 52.1712 9.14367V7.45325H54.7323Z" fill="white"/>
<path d="M64.6697 10.0145H62.9794C62.4984 10.0145 62.1086 9.62465 62.1086 9.1437V8.3241C62.1086 7.84316 62.4984 7.45328 62.9794 7.45328H64.6697V10.0145Z" fill="white"/>
<path d="M67.154 7.45325H64.5928V10.0145H67.154V7.45325Z" fill="white"/>
<path d="M67.0772 7.45325H69.6384V9.14367C69.6384 9.62461 69.2485 10.0145 68.7676 10.0145H67.0772V7.45325Z" fill="white"/>
<path d="M24.1391 12.4477V12.499H24.9203V11.7178H24.869C24.869 12.1225 24.5412 12.4477 24.1391 12.4477Z" fill="white"/>
<path d="M27.4046 9.9375H24.8434V12.4987H27.4046V9.9375Z" fill="white"/>
<path d="M29.812 12.4989V10.8085C29.812 10.3275 30.2019 9.93765 30.6828 9.93765H31.5024C31.9833 9.93765 32.3732 10.3275 32.3732 10.8085V12.4989H29.812Z" fill="white"/>
<path d="M47.2793 9.9375V11.6279C47.2793 12.1089 46.8895 12.4987 46.4085 12.4987H45.589C45.108 12.4987 44.7182 12.1089 44.7182 11.6279V9.9375H47.2793Z" fill="white"/>
<path d="M48.9825 12.4477V12.499H49.7636V11.7178H49.7124C49.7124 12.1225 49.3846 12.4477 48.9825 12.4477Z" fill="white"/>
<path d="M49.6868 12.4989V10.8085C49.6868 10.3275 50.0767 9.93765 50.5576 9.93765H51.3772C51.8581 9.93765 52.248 10.3275 52.248 10.8085V12.4989H49.6868Z" fill="white"/>
<path d="M59.701 12.4989H58.0106C57.5297 12.4989 57.1398 12.109 57.1398 11.6281V10.8085C57.1398 10.3275 57.5297 9.93765 58.0106 9.93765H59.701V12.4989Z" fill="white"/>
<path d="M59.6242 12.4989V9.93765H61.3146C61.7955 9.93765 62.1854 10.3275 62.1854 10.8085V12.4989H59.6242Z" fill="white"/>
<path d="M22.4359 14.9834H19.8747V13.293C19.8747 12.812 20.2646 12.4222 20.7455 12.4222H22.4359V14.9834Z" fill="white"/>
<path d="M24.9203 12.422H22.3591V14.9832H24.9203V12.422Z" fill="white"/>
<path d="M27.4046 12.422H24.8434V14.9832H27.4046V12.422Z" fill="white"/>
<path d="M32.3732 12.422H29.812V14.9832H32.3732V12.422Z" fill="white"/>
<path d="M34.8576 12.422H32.2964V14.9832H34.8576V12.422Z" fill="white"/>
<path d="M34.7808 14.9834V12.4222H36.4712C36.9521 12.4222 37.342 12.812 37.342 13.293V14.9834H34.7808Z" fill="white"/>
<path d="M42.3106 14.9834H39.7494V13.293C39.7494 12.812 40.1393 12.4222 40.6202 12.4222H42.3106V14.9834Z" fill="white"/>
<path d="M42.2338 14.9834V13.293C42.2338 12.812 42.6237 12.4222 43.1046 12.4222H43.9242C44.4051 12.4222 44.795 12.812 44.795 13.293V14.9834H42.2338Z" fill="white"/>
<path d="M49.7636 14.9834H48.0732C47.5923 14.9834 47.2024 14.5935 47.2024 14.1126V13.293C47.2024 12.812 47.5923 12.4222 48.0732 12.4222H49.7636V14.9834Z" fill="white"/>
<path d="M52.248 12.422H49.6868V14.9832H52.248V12.422Z" fill="white"/>
<path d="M54.6555 14.9834V13.293C54.6555 12.812 55.0454 12.4222 55.5263 12.4222H56.3459C56.8268 12.4222 57.2167 12.812 57.2167 13.293V14.9834H54.6555Z" fill="white"/>
<path d="M62.1854 12.422H59.6242V14.9832H62.1854V12.422Z" fill="white"/>
<path d="M69.6384 14.9834H67.948C67.4671 14.9834 67.0772 14.5935 67.0772 14.1126V13.293C67.0772 12.812 67.4671 12.4222 67.948 12.4222H69.6384V14.9834Z" fill="white"/>
<path d="M69.5615 14.9834V12.4222H71.2519C71.7328 12.4222 72.1227 12.812 72.1227 13.293V14.9834H69.5615Z" fill="white"/>
<path d="M22.4359 14.9065H19.8748V17.4677H22.4359V14.9065Z" fill="white"/>
<path d="M27.4046 14.9065V16.5969C27.4046 17.0779 27.0147 17.4677 26.5338 17.4677H25.7142C25.2333 17.4677 24.8434 17.0779 24.8434 16.5969V14.9065H27.4046Z" fill="white"/>
<path d="M32.3732 14.9065V16.5969C32.3732 17.0779 31.9834 17.4677 31.5024 17.4677H30.6829C30.2019 17.4677 29.8121 17.0779 29.8121 16.5969V14.9065H32.3732Z" fill="white"/>
<path d="M37.3419 14.9065V16.5969C37.3419 17.0779 36.9521 17.4677 36.4711 17.4677H35.6516C35.1706 17.4677 34.7808 17.0779 34.7808 16.5969V14.9065H37.3419Z" fill="white"/>
<path d="M42.3107 14.9065H39.7495V17.4677H42.3107V14.9065Z" fill="white"/>
<path d="M44.7181 15.639V16.7378C44.7181 17.1425 45.0459 17.4677 45.4506 17.4677H46.5494C46.9566 17.4677 47.2818 17.1399 47.2818 16.7352V15.639C47.2793 15.2318 46.9515 14.9065 46.5468 14.9065H45.4506C45.0459 14.9065 44.7181 15.2343 44.7181 15.639Z" fill="white"/>
<path d="M52.248 14.9065H49.6868V17.4677H52.248V14.9065Z" fill="white"/>
<path d="M53.9511 17.4165V17.4677H54.7323V16.6865H54.6811C54.6811 17.0912 54.3532 17.4165 53.9511 17.4165Z" fill="white"/>
<path d="M57.2167 14.9065H54.6555V17.4677H57.2167V14.9065Z" fill="white"/>
<path d="M58.9199 17.4165V17.4677H59.7011V16.6865H59.6498C59.6498 17.0912 59.322 17.4165 58.9199 17.4165Z" fill="white"/>
<path d="M62.1854 14.9065H59.6242V17.4677H62.1854V14.9065Z" fill="white"/>
<path d="M64.5928 17.4678V15.7774C64.5928 15.2964 64.9827 14.9065 65.4636 14.9065H66.2832C66.7641 14.9065 67.154 15.2964 67.154 15.7774V17.4678H64.5928Z" fill="white"/>
<path d="M72.1227 14.9065H69.5615V17.4677H72.1227V14.9065Z" fill="white"/>
<path d="M22.4359 17.3907H19.8748V19.952H22.4359V17.3907Z" fill="white"/>
<path d="M22.3591 19.9521V18.2617C22.3591 17.7808 22.749 17.3909 23.2299 17.3909H24.0495C24.5304 17.3909 24.9203 17.7808 24.9203 18.2617V19.9521H22.3591Z" fill="white"/>
<path d="M32.2964 18.1233V19.222C32.2964 19.6267 32.6242 19.952 33.0289 19.952H34.1277C34.5349 19.952 34.8602 19.6242 34.8602 19.2195V18.1233C34.8576 17.716 34.5298 17.3907 34.1251 17.3907H33.0289C32.6242 17.3907 32.2964 17.7186 32.2964 18.1233Z" fill="white"/>
<path d="M42.3106 17.3907V19.0812C42.3106 19.5621 41.9207 19.952 41.4398 19.952H40.6202C40.1393 19.952 39.7494 19.5621 39.7494 19.0812V17.3907H42.3106Z" fill="white"/>
<path d="M49.7636 19.9521H48.0732C47.5923 19.9521 47.2024 19.5623 47.2024 19.0813V18.2617C47.2024 17.7808 47.5923 17.3909 48.0732 17.3909H49.7636V19.9521Z" fill="white"/>
<path d="M52.248 17.3907H49.6868V19.952H52.248V17.3907Z" fill="white"/>
<path d="M54.7323 17.3907H52.1712V19.952H54.7323V17.3907Z" fill="white"/>
<path d="M57.2167 17.3907H54.6555V19.952H57.2167V17.3907Z" fill="white"/>
<path d="M59.701 17.3907H57.1398V19.952H59.701V17.3907Z" fill="white"/>
<path d="M59.6242 17.3907H62.1854V19.0812C62.1854 19.5621 61.7955 19.952 61.3146 19.952H59.6242V17.3907Z" fill="white"/>
<path d="M67.154 17.3907V19.0812C67.154 19.5621 66.7642 19.952 66.2832 19.952H65.4636C64.9827 19.952 64.5928 19.5621 64.5928 19.0812V17.3907H67.154Z" fill="white"/>
<path d="M72.1227 17.3907V19.0812C72.1227 19.5621 71.7328 19.952 71.2519 19.952H70.4323C69.9514 19.952 69.5615 19.5621 69.5615 19.0812V17.3907H72.1227Z" fill="white"/>
<path d="M7.52988 22.4365H4.9687V20.7461C4.9687 20.2652 5.35857 19.8753 5.8395 19.8753H7.52988V22.4365Z" fill="white"/>
<path d="M10.0142 19.8752H7.45303V22.4365H10.0142V19.8752Z" fill="white"/>
<path d="M9.93735 22.4365V19.8753H11.6277C12.1087 19.8753 12.4985 20.2652 12.4985 20.7461V22.4365H9.93735Z" fill="white"/>
<path d="M14.906 20.6078V21.7065C14.906 22.1112 15.2339 22.4365 15.6385 22.4365H16.7373C17.1445 22.4365 17.4698 22.1087 17.4698 21.704V20.6078C17.4672 20.2005 17.1394 19.8752 16.7347 19.8752H15.6385C15.2339 19.8752 14.906 20.2031 14.906 20.6078Z" fill="white"/>
<path d="M22.4359 19.8752V21.5657C22.4359 22.0466 22.046 22.4365 21.5651 22.4365H20.7455C20.2646 22.4365 19.8747 22.0466 19.8747 21.5657V19.8752H22.4359Z" fill="white"/>
<path d="M27.3278 20.6078V21.7065C27.3278 22.1112 27.6556 22.4365 28.0603 22.4365H29.159C29.5662 22.4365 29.8915 22.1087 29.8915 21.704V20.6078C29.8889 20.2005 29.5611 19.8752 29.1564 19.8752H28.0603C27.6556 19.8752 27.3278 20.2031 27.3278 20.6078Z" fill="white"/>
<path d="M37.3419 22.4365H35.6516C35.1706 22.4365 34.7808 22.0466 34.7808 21.5657V20.7461C34.7808 20.2652 35.1706 19.8753 35.6516 19.8753H37.3419V22.4365Z" fill="white"/>
<path d="M37.2651 22.4365V20.7461C37.2651 20.2652 37.655 19.8753 38.1359 19.8753H38.9555C39.4364 19.8753 39.8263 20.2652 39.8263 20.7461V22.4365H37.2651Z" fill="white"/>
<path d="M42.2338 22.4365V20.7461C42.2338 20.2652 42.6237 19.8753 43.1046 19.8753H43.9242C44.4051 19.8753 44.795 20.2652 44.795 20.7461V22.4365H42.2338Z" fill="white"/>
<path d="M54.7323 19.8752V22.4365H53.042C52.561 22.4365 52.1712 22.0466 52.1712 21.5657V19.8752H54.7323Z" fill="white"/>
<path d="M54.6555 19.8752H57.2167V21.5657C57.2167 22.0466 56.8268 22.4365 56.3459 22.4365H54.6555V19.8752Z" fill="white"/>
<path d="M74.607 22.4365H72.9166C72.4357 22.4365 72.0458 22.0466 72.0458 21.5657V20.7461C72.0458 20.2652 72.4357 19.8753 72.9166 19.8753H74.607V22.4365Z" fill="white"/>
<path d="M77.0914 19.8752H74.5302V22.4365H77.0914V19.8752Z" fill="white"/>
<path d="M77.0146 22.4365V20.7461C77.0146 20.2652 77.4044 19.8753 77.8854 19.8753H78.7049C79.1859 19.8753 79.5757 20.2652 79.5757 20.7461V22.4365H77.0146Z" fill="white"/>
<path d="M87.0287 22.4365H85.3383C84.8574 22.4365 84.4675 22.0466 84.4675 21.5657V20.7461C84.4675 20.2652 84.8574 19.8753 85.3383 19.8753H87.0287V22.4365Z" fill="white"/>
<path d="M89.5131 19.8752H86.9519V22.4365H89.5131V19.8752Z" fill="white"/>
<path d="M89.4363 22.4365V20.7461C89.4363 20.2652 89.8261 19.8753 90.3071 19.8753H91.1267C91.6076 19.8753 91.9975 20.2652 91.9975 20.7461V22.4365H89.4363Z" fill="white"/>
<path d="M0 23.0921V24.1909C0 24.5956 0.327831 24.9209 0.732496 24.9209H1.83124C2.23847 24.9209 2.56374 24.593 2.56374 24.1883V23.0921C2.56118 22.6849 2.23335 22.3596 1.82868 22.3596H0.732496C0.327831 22.3596 0 22.6875 0 23.0921Z" fill="white"/>
<path d="M4.26434 24.8697V24.921H5.0455V24.1398H4.99428C4.99428 24.5444 4.66645 24.8697 4.26434 24.8697Z" fill="white"/>
<path d="M7.5299 22.3596H4.96872V24.9209H7.5299V22.3596Z" fill="white"/>
<path d="M10.0142 22.3596H7.45303V24.9209H10.0142V22.3596Z" fill="white"/>
<path d="M12.4985 22.3596H9.93735V24.9209H12.4985V22.3596Z" fill="white"/>
<path d="M12.4217 24.921V22.3598H14.1121C14.593 22.3598 14.9829 22.7497 14.9829 23.2306V24.921H12.4217Z" fill="white"/>
<path d="M17.3904 23.0921V24.1909C17.3904 24.5956 17.7182 24.9209 18.1229 24.9209H19.2216C19.6288 24.9209 19.9541 24.593 19.9541 24.1883V23.0921C19.9516 22.6849 19.6237 22.3596 19.2191 22.3596H18.1229C17.7182 22.3596 17.3904 22.6875 17.3904 23.0921Z" fill="white"/>
<path d="M24.9202 24.921H22.3591V23.2306C22.3591 22.7497 22.7489 22.3598 23.2299 22.3598H24.9202V24.921Z" fill="white"/>
<path d="M24.8434 24.921V23.2306C24.8434 22.7497 25.2333 22.3598 25.7142 22.3598H26.5338C27.0147 22.3598 27.4046 22.7497 27.4046 23.2306V24.921H24.8434Z" fill="white"/>
<path d="M31.5921 24.8697V24.921H32.3733V24.1398H32.322C32.322 24.5444 31.9942 24.8697 31.5921 24.8697Z" fill="white"/>
<path d="M32.2964 24.921V23.2306C32.2964 22.7497 32.6863 22.3598 33.1672 22.3598H33.9868C34.4677 22.3598 34.8576 22.7497 34.8576 23.2306V24.921H32.2964Z" fill="white"/>
<path d="M41.5295 24.8697V24.921H42.3106V24.1398H42.2594C42.2594 24.5444 41.9316 24.8697 41.5295 24.8697Z" fill="white"/>
<path d="M44.795 22.3596H42.2338V24.9209H44.795V22.3596Z" fill="white"/>
<path d="M62.1854 24.921H60.495C60.0141 24.921 59.6242 24.5311 59.6242 24.0502V23.2306C59.6242 22.7497 60.0141 22.3598 60.495 22.3598H62.1854V24.921Z" fill="white"/>
<path d="M64.6697 22.3596H62.1085V24.9209H64.6697V22.3596Z" fill="white"/>
<path d="M67.154 22.3596H64.5928V24.9209H67.154V22.3596Z" fill="white"/>
<path d="M69.6384 22.3596H67.0772V24.9209H69.6384V22.3596Z" fill="white"/>
<path d="M69.5615 24.921V23.2306C69.5615 22.7497 69.9514 22.3598 70.4323 22.3598H71.2519C71.7328 22.3598 72.1227 22.7497 72.1227 23.2306V24.921H69.5615Z" fill="white"/>
<path d="M77.0914 22.3596H74.5302V24.9209H77.0914V22.3596Z" fill="white"/>
<path d="M89.5131 22.3596V24.05C89.5131 24.531 89.1232 24.9209 88.6423 24.9209H87.8227C87.3418 24.9209 86.9519 24.531 86.9519 24.05V22.3596H89.5131Z" fill="white"/>
<path d="M1.78 27.3542V27.4054H2.56116V26.6243H2.50993C2.50993 27.0289 2.1821 27.3542 1.78 27.3542Z" fill="white"/>
<path d="M5.0455 27.4054H2.48433V25.715C2.48433 25.234 2.8742 24.8441 3.35513 24.8441H5.0455V27.4054Z" fill="white"/>
<path d="M4.96872 24.844H7.5299V26.5344C7.5299 27.0154 7.14002 27.4052 6.6591 27.4052H4.96872V24.844Z" fill="white"/>
<path d="M12.4985 24.844H9.93735V27.4052H12.4985V24.844Z" fill="white"/>
<path d="M14.9829 24.844H12.4217V27.4052H14.9829V24.844Z" fill="white"/>
<path d="M14.9061 27.4054V25.715C14.9061 25.234 15.2959 24.8441 15.7769 24.8441H16.5964C17.0774 24.8441 17.4672 25.234 17.4672 25.715V27.4054H14.9061Z" fill="white"/>
<path d="M24.9202 24.844V26.5344C24.9202 27.0154 24.5304 27.4052 24.0494 27.4052H23.2299C22.7489 27.4052 22.3591 27.0154 22.3591 26.5344V24.844H24.9202Z" fill="white"/>
<path d="M32.3732 27.4054H29.8121V25.715C29.8121 25.234 30.2019 24.8441 30.6829 24.8441H32.3732V27.4054Z" fill="white"/>
<path d="M34.8576 24.844H32.2964V27.4052H34.8576V24.844Z" fill="white"/>
<path d="M37.3419 24.844H34.7808V27.4052H37.3419V24.844Z" fill="white"/>
<path d="M39.8263 24.844H37.2651V27.4052H39.8263V24.844Z" fill="white"/>
<path d="M42.3107 24.844H39.7495V27.4052H42.3107V24.844Z" fill="white"/>
<path d="M42.2338 24.844H44.795V26.5344C44.795 27.0154 44.4051 27.4052 43.9242 27.4052H42.2338V24.844Z" fill="white"/>
<path d="M49.7636 27.4054H48.0732C47.5923 27.4054 47.2024 27.0155 47.2024 26.5346V25.715C47.2024 25.234 47.5923 24.8441 48.0732 24.8441H49.7636V27.4054Z" fill="white"/>
<path d="M49.6868 27.4054V25.715C49.6868 25.234 50.0767 24.8441 50.5576 24.8441H51.3772C51.8581 24.8441 52.248 25.234 52.248 25.715V27.4054H49.6868Z" fill="white"/>
<path d="M57.1398 27.4054V25.715C57.1398 25.234 57.5297 24.8441 58.0106 24.8441H58.8302C59.3111 24.8441 59.701 25.234 59.701 25.715V27.4054H57.1398Z" fill="white"/>
<path d="M64.6697 24.844V27.4052H62.9794C62.4984 27.4052 62.1086 27.0154 62.1086 26.5344V24.844H64.6697Z" fill="white"/>
<path d="M67.154 24.844H64.5928V27.4052H67.154V24.844Z" fill="white"/>
<path d="M77.0914 24.844H74.5302V27.4052H77.0914V24.844Z" fill="white"/>
<path d="M89.4362 25.5765V26.6753C89.4362 27.08 89.7641 27.4052 90.1687 27.4052H91.2675C91.6747 27.4052 92 27.0774 92 26.6727V25.5765C91.9974 25.1693 91.6696 24.844 91.2649 24.844H90.1687C89.7641 24.844 89.4362 25.1718 89.4362 25.5765Z" fill="white"/>
<path d="M2.56119 29.8898H0.870812C0.389882 29.8898 1.19209e-05 29.4999 1.19209e-05 29.0189V28.1993C1.19209e-05 27.7184 0.389882 27.3285 0.870812 27.3285H2.56119L2.56119 29.8898Z" fill="white"/>
<path d="M2.48431 27.3285H5.04549V29.0189C5.04549 29.4999 4.65562 29.8897 4.17469 29.8897H2.48431V27.3285Z" fill="white"/>
<path d="M10.0143 29.8898H7.45308V28.1993C7.45308 27.7184 7.84295 27.3285 8.32388 27.3285H10.0143V29.8898Z" fill="white"/>
<path d="M12.4985 27.3285H9.93735V29.8897H12.4985V27.3285Z" fill="white"/>
<path d="M14.9829 27.3285H12.4217V29.8897H14.9829V27.3285Z" fill="white"/>
<path d="M16.686 29.8385V29.8897H17.4672V29.1085H17.416C17.416 29.5132 17.0881 29.8385 16.686 29.8385Z" fill="white"/>
<path d="M19.9515 29.8898H17.3904V28.1993C17.3904 27.7184 17.7802 27.3285 18.2612 27.3285H19.9515V29.8898Z" fill="white"/>
<path d="M19.8748 29.8898V27.3285H21.5651C22.0461 27.3285 22.4359 27.7184 22.4359 28.1993V29.8898H19.8748Z" fill="white"/>
<path d="M24.8434 28.061V29.1598C24.8434 29.5645 25.1712 29.8897 25.5759 29.8897H26.6747C27.0819 29.8897 27.4072 29.5619 27.4072 29.1572V28.061C27.4046 27.6538 27.0768 27.3285 26.6721 27.3285H25.5759C25.1712 27.3285 24.8434 27.6563 24.8434 28.061Z" fill="white"/>
<path d="M29.1078 29.8385V29.8897H29.8889V29.1085H29.8377C29.8377 29.5132 29.5099 29.8385 29.1078 29.8385Z" fill="white"/>
<path d="M32.3732 27.3285H29.812V29.8897H32.3732V27.3285Z" fill="white"/>
<path d="M32.2964 27.3285H34.8576V29.0189C34.8576 29.4999 34.4677 29.8897 33.9868 29.8897H32.2964V27.3285Z" fill="white"/>
<path d="M39.8263 27.3285H37.2651V29.8897H39.8263V27.3285Z" fill="white"/>
<path d="M42.3107 27.3285H39.7495V29.8897H42.3107V27.3285Z" fill="white"/>
<path d="M44.7181 28.061V29.1598C44.7181 29.5645 45.0459 29.8897 45.4506 29.8897H46.5494C46.9566 29.8897 47.2818 29.5619 47.2818 29.1572V28.061C47.2793 27.6538 46.9515 27.3285 46.5468 27.3285H45.4506C45.0459 27.3285 44.7181 27.6563 44.7181 28.061Z" fill="white"/>
<path d="M56.4355 29.8385V29.8897H57.2167V29.1085H57.1655C57.1655 29.5132 56.8376 29.8385 56.4355 29.8385Z" fill="white"/>
<path d="M59.701 27.3285H57.1398V29.8897H59.701V27.3285Z" fill="white"/>
<path d="M59.6242 29.8898V27.3285H61.3146C61.7955 27.3285 62.1854 27.7184 62.1854 28.1993V29.8898H59.6242Z" fill="white"/>
<path d="M63.8885 29.8385V29.8897H64.6697V29.1085H64.6185C64.6185 29.5132 64.2906 29.8385 63.8885 29.8385Z" fill="white"/>
<path d="M67.154 27.3285H64.5928V29.8897H67.154V27.3285Z" fill="white"/>
<path d="M69.5615 29.8898V28.1993C69.5615 27.7184 69.9514 27.3285 70.4323 27.3285H71.2519C71.7328 27.3285 72.1227 27.7184 72.1227 28.1993V29.8898H69.5615Z" fill="white"/>
<path d="M73.8259 29.8385V29.8897H74.6071V29.1085H74.5559C74.5559 29.5132 74.228 29.8385 73.8259 29.8385Z" fill="white"/>
<path d="M77.0914 27.3285H74.5302V29.8897H77.0914V27.3285Z" fill="white"/>
<path d="M77.0146 29.8898V27.3285H78.7049C79.1859 27.3285 79.5757 27.7184 79.5757 28.1993V29.8898H77.0146Z" fill="white"/>
<path d="M86.9519 28.061V29.1598C86.9519 29.5645 87.2797 29.8897 87.6844 29.8897H88.7831C89.1904 29.8897 89.5156 29.5619 89.5156 29.1572V28.061C89.5131 27.6538 89.1852 27.3285 88.7806 27.3285H87.6844C87.2797 27.3285 86.9519 27.6563 86.9519 28.061Z" fill="white"/>
<path d="M10.0142 29.8129H7.45303V32.3741H10.0142V29.8129Z" fill="white"/>
<path d="M12.4985 29.8129H9.93735V32.3741H12.4985V29.8129Z" fill="white"/>
<path d="M14.9829 29.8129H12.4217V32.3741H14.9829V29.8129Z" fill="white"/>
<path d="M17.4672 29.8129H14.906V32.3741H17.4672V29.8129Z" fill="white"/>
<path d="M19.9516 29.8129H17.3904V32.3741H19.9516V29.8129Z" fill="white"/>
<path d="M22.4359 29.8129H19.8748V32.3741H22.4359V29.8129Z" fill="white"/>
<path d="M22.3591 32.3743V29.813H24.0495C24.5304 29.813 24.9203 30.2029 24.9203 30.6838V32.3743H22.3591Z" fill="white"/>
<path d="M29.889 32.3743H28.1986C27.7177 32.3743 27.3278 31.9844 27.3278 31.5034V30.6838C27.3278 30.2029 27.7177 29.813 28.1986 29.813H29.889V32.3743Z" fill="white"/>
<path d="M29.812 29.8129H32.3732V31.5033C32.3732 31.9842 31.9833 32.3741 31.5024 32.3741H29.812V29.8129Z" fill="white"/>
<path d="M37.3419 32.3743H35.6516C35.1706 32.3743 34.7808 31.9844 34.7808 31.5034V30.6838C34.7808 30.2029 35.1706 29.813 35.6516 29.813H37.3419V32.3743Z" fill="white"/>
<path d="M39.8263 29.8129H37.2651V32.3741H39.8263V29.8129Z" fill="white"/>
<path d="M39.7495 29.8129H42.3107V31.5033C42.3107 31.9842 41.9208 32.3741 41.4399 32.3741H39.7495V29.8129Z" fill="white"/>
<path d="M52.248 32.3743H49.6868V30.6838C49.6868 30.2029 50.0766 29.813 50.5576 29.813H52.248V32.3743Z" fill="white"/>
<path d="M54.7323 29.8129H52.1712V32.3741H54.7323V29.8129Z" fill="white"/>
<path d="M57.2167 29.8129H54.6555V32.3741H57.2167V29.8129Z" fill="white"/>
<path d="M59.701 29.8129H57.1398V32.3741H59.701V29.8129Z" fill="white"/>
<path d="M62.1854 29.8129H59.6242V32.3741H62.1854V29.8129Z" fill="white"/>
<path d="M64.6697 29.8129H62.1085V32.3741H64.6697V29.8129Z" fill="white"/>
<path d="M64.5928 29.8129H67.154V31.5033C67.154 31.9842 66.7641 32.3741 66.2832 32.3741H64.5928V29.8129Z" fill="white"/>
<path d="M72.1227 29.8129V32.3741H70.4323C69.9514 32.3741 69.5615 31.9842 69.5615 31.5033V29.8129H72.1227Z" fill="white"/>
<path d="M74.607 29.8129H72.0459V32.3741H74.607V29.8129Z" fill="white"/>
<path d="M77.0914 29.8129H74.5302V32.3741H77.0914V29.8129Z" fill="white"/>
<path d="M79.5757 29.8129H77.0146V32.3741H79.5757V29.8129Z" fill="white"/>
<path d="M82.0601 29.8129H79.4989V32.3741H82.0601V29.8129Z" fill="white"/>
<path d="M84.5445 29.8129H81.9833V32.3741H84.5445V29.8129Z" fill="white"/>
<path d="M84.4676 32.3743V29.813H86.1579C86.6389 29.813 87.0287 30.2029 87.0287 30.6838V32.3743H84.4676Z" fill="white"/>
<path d="M89.4362 30.5454V31.6442C89.4362 32.0488 89.7641 32.3741 90.1687 32.3741H91.2675C91.6747 32.3741 92 32.0463 92 31.6416V30.5454C91.9974 30.1381 91.6696 29.8129 91.2649 29.8129H90.1687C89.7641 29.8129 89.4362 30.1407 89.4362 30.5454Z" fill="white"/>
<path d="M0 34.8585L0 33.1681C0 32.6872 0.38987 32.2973 0.8708 32.2973H1.69038C2.17131 32.2973 2.56118 32.6872 2.56118 33.1681V34.8585H0Z" fill="white"/>
<path d="M10.0143 32.2974V33.9878C10.0143 34.4687 9.62438 34.8586 9.14345 34.8586H8.32388C7.84295 34.8586 7.45308 34.4687 7.45308 33.9878V32.2974H10.0143Z" fill="white"/>
<path d="M14.9829 32.2974V33.9878C14.9829 34.4687 14.593 34.8586 14.1121 34.8586H13.2925C12.8116 34.8586 12.4217 34.4687 12.4217 33.9878V32.2974H14.9829Z" fill="white"/>
<path d="M22.4359 32.2974V34.8586H20.7455C20.2646 34.8586 19.8747 34.4687 19.8747 33.9878V32.2974H22.4359Z" fill="white"/>
<path d="M22.3591 32.2974H24.9203V33.9878C24.9203 34.4687 24.5304 34.8586 24.0495 34.8586H22.3591V32.2974Z" fill="white"/>
<path d="M32.2964 34.8585V33.1681C32.2964 32.6872 32.6863 32.2973 33.1672 32.2973H33.9868C34.4677 32.2973 34.8576 32.6872 34.8576 33.1681V34.8585H32.2964Z" fill="white"/>
<path d="M44.7181 33.0299V34.1287C44.7181 34.5333 45.0459 34.8586 45.4506 34.8586H46.5494C46.9566 34.8586 47.2818 34.5308 47.2818 34.1261V33.0299C47.2793 32.6226 46.9515 32.2974 46.5468 32.2974H45.4506C45.0459 32.2974 44.7181 32.6252 44.7181 33.0299Z" fill="white"/>
<path d="M52.248 32.2974V33.9878C52.248 34.4687 51.8581 34.8586 51.3772 34.8586H50.5576C50.0766 34.8586 49.6868 34.4687 49.6868 33.9878V32.2974H52.248Z" fill="white"/>
<path d="M62.1854 32.2974V34.8586H60.495C60.0141 34.8586 59.6242 34.4687 59.6242 33.9878V32.2974H62.1854Z" fill="white"/>
<path d="M62.1085 32.2974H64.6697V33.9878C64.6697 34.4687 64.2798 34.8586 63.7989 34.8586H62.1085V32.2974Z" fill="white"/>
<path d="M74.607 32.2974H72.0459V34.8586H74.607V32.2974Z" fill="white"/>
<path d="M79.5757 32.2974H77.0146V34.8586H79.5757V32.2974Z" fill="white"/>
<path d="M84.5445 32.2974H81.9833V34.8586H84.5445V32.2974Z" fill="white"/>
<path d="M84.4676 32.2974H87.0288V33.9878C87.0288 34.4687 86.6389 34.8586 86.158 34.8586H84.4676V32.2974Z" fill="white"/>
<path d="M2.56118 34.7817H0V37.343H2.56118V34.7817Z" fill="white"/>
<path d="M9.93735 35.5143V36.613C9.93735 37.0177 10.2652 37.343 10.6698 37.343H11.7686C12.1758 37.343 12.5011 37.0151 12.5011 36.6105V35.5143C12.4985 35.107 12.1707 34.7817 11.766 34.7817H10.6698C10.2652 34.7817 9.93735 35.1096 9.93735 35.5143Z" fill="white"/>
<path d="M17.4672 37.343H15.7768C15.2959 37.343 14.906 36.9531 14.906 36.4722V35.6526C14.906 35.1717 15.2959 34.7818 15.7768 34.7818H17.4672V37.343Z" fill="white"/>
<path d="M17.3904 37.343V35.6526C17.3904 35.1717 17.7802 34.7818 18.2612 34.7818H19.0807C19.5617 34.7818 19.9515 35.1717 19.9515 35.6526V37.343H17.3904Z" fill="white"/>
<path d="M27.3278 35.5143V36.613C27.3278 37.0177 27.6556 37.343 28.0603 37.343H29.159C29.5662 37.343 29.8915 37.0151 29.8915 36.6105V35.5143C29.8889 35.107 29.5611 34.7817 29.1564 34.7817H28.0603C27.6556 34.7817 27.3278 35.1096 27.3278 35.5143Z" fill="white"/>
<path d="M34.8576 34.7817H32.2964V37.343H34.8576V34.7817Z" fill="white"/>
<path d="M47.2024 37.343V35.6526C47.2024 35.1717 47.5923 34.7818 48.0732 34.7818H48.8928C49.3737 34.7818 49.7636 35.1717 49.7636 35.6526V37.343H47.2024Z" fill="white"/>
<path d="M67.0772 37.343V35.6526C67.0772 35.1717 67.4671 34.7818 67.948 34.7818H68.7676C69.2485 34.7818 69.6384 35.1717 69.6384 35.6526V37.343H67.0772Z" fill="white"/>
<path d="M71.3415 37.2917V37.3429H72.1227V36.5618H72.0715C72.0715 36.9664 71.7436 37.2917 71.3415 37.2917Z" fill="white"/>
<path d="M74.607 34.7817H72.0459V37.343H74.607V34.7817Z" fill="white"/>
<path d="M77.0914 34.7817H74.5302V37.343H77.0914V34.7817Z" fill="white"/>
<path d="M77.0146 34.7817H79.5757V36.4722C79.5757 36.9531 79.1859 37.343 78.7049 37.343H77.0146V34.7817Z" fill="white"/>
<path d="M84.5444 34.7817V36.4722C84.5444 36.9531 84.1546 37.343 83.6736 37.343H82.8541C82.3731 37.343 81.9833 36.9531 81.9833 36.4722V34.7817H84.5444Z" fill="white"/>
<path d="M89.5131 37.343H86.9519V35.6526C86.9519 35.1717 87.3418 34.7818 87.8227 34.7818H89.5131V37.343Z" fill="white"/>
<path d="M89.4363 37.343V35.6526C89.4363 35.1717 89.8261 34.7818 90.3071 34.7818H91.1267C91.6076 34.7818 91.9975 35.1717 91.9975 35.6526V37.343H89.4363Z" fill="white"/>
<path d="M2.56119 37.2662V38.9567C2.56119 39.4376 2.17132 39.8275 1.69039 39.8275H0.870812C0.389882 39.8275 1.19209e-05 39.4376 1.19209e-05 38.9567V37.2662H2.56119Z" fill="white"/>
<path d="M7.52988 39.8274H5.8395C5.35857 39.8274 4.9687 39.4375 4.9687 38.9566V38.137C4.9687 37.656 5.35857 37.2661 5.8395 37.2661H7.52988V39.8274Z" fill="white"/>
<path d="M7.45306 39.8274V37.2661H9.14344C9.62437 37.2661 10.0142 37.656 10.0142 38.137V39.8274H7.45306Z" fill="white"/>
<path d="M24.9202 39.8274H23.2299C22.7489 39.8274 22.3591 39.4375 22.3591 38.9566V38.137C22.3591 37.656 22.7489 37.2661 23.2299 37.2661H24.9202V39.8274Z" fill="white"/>
<path d="M24.8434 39.8274V38.137C24.8434 37.656 25.2333 37.2661 25.7142 37.2661H26.5338C27.0147 37.2661 27.4046 37.656 27.4046 38.137V39.8274H24.8434Z" fill="white"/>
<path d="M31.5921 39.7762V39.8274H32.3733V39.0463H32.322C32.322 39.4509 31.9942 39.7762 31.5921 39.7762Z" fill="white"/>
<path d="M34.8576 37.2662H32.2964V39.8275H34.8576V37.2662Z" fill="white"/>
<path d="M37.2651 39.8274V38.137C37.2651 37.656 37.655 37.2661 38.1359 37.2661H38.9555C39.4364 37.2661 39.8263 37.656 39.8263 38.137V39.8274H37.2651Z" fill="white"/>
<path d="M42.2338 37.9988V39.0975C42.2338 39.5022 42.5616 39.8275 42.9663 39.8275H44.065C44.4723 39.8275 44.7975 39.4996 44.7975 39.095V37.9988C44.795 37.5915 44.4671 37.2662 44.0625 37.2662H42.9663C42.5616 37.2662 42.2338 37.5941 42.2338 37.9988Z" fill="white"/>
<path d="M49.7636 37.2662V39.8275H48.0732C47.5923 39.8275 47.2024 39.4376 47.2024 38.9567V37.2662H49.7636Z" fill="white"/>
<path d="M49.6868 39.8274V37.2661H51.3772C51.8581 37.2661 52.248 37.656 52.248 38.137V39.8274H49.6868Z" fill="white"/>
<path d="M57.2166 39.8274H55.5263C55.0453 39.8274 54.6555 39.4375 54.6555 38.9566V38.137C54.6555 37.656 55.0453 37.2661 55.5263 37.2661H57.2166V39.8274Z" fill="white"/>
<path d="M57.1398 39.8274V38.137C57.1398 37.656 57.5297 37.2661 58.0106 37.2661H58.8302C59.3111 37.2661 59.701 37.656 59.701 38.137V39.8274H57.1398Z" fill="white"/>
<path d="M66.3728 39.7762V39.8274H67.154V39.0463H67.1028C67.1028 39.4509 66.7749 39.7762 66.3728 39.7762Z" fill="white"/>
<path d="M69.6384 37.2662H67.0772V39.8275H69.6384V37.2662Z" fill="white"/>
<path d="M72.1227 37.2662H69.5615V39.8275H72.1227V37.2662Z" fill="white"/>
<path d="M74.607 37.2662H72.0459V39.8275H74.607V37.2662Z" fill="white"/>
<path d="M77.0914 37.2662H74.5302V39.8275H77.0914V37.2662Z" fill="white"/>
<path d="M89.5131 37.2662V38.9567C89.5131 39.4376 89.1232 39.8275 88.6423 39.8275H87.8227C87.3418 39.8275 86.9519 39.4376 86.9519 38.9567V37.2662H89.5131Z" fill="white"/>
<path d="M1.78 42.2605V42.3117H2.56116V41.5305H2.50993C2.50993 41.9352 2.1821 42.2605 1.78 42.2605Z" fill="white"/>
<path d="M2.48431 42.3118V40.6213C2.48431 40.1404 2.87418 39.7505 3.35511 39.7505H4.17469C4.65562 39.7505 5.04549 40.1404 5.04549 40.6213V42.3118H2.48431Z" fill="white"/>
<path d="M6.74872 42.2605V42.3117H7.52988V41.5305H7.47865C7.47865 41.9352 7.15082 42.2605 6.74872 42.2605Z" fill="white"/>
<path d="M10.0142 39.7505H7.45303V42.3117H10.0142V39.7505Z" fill="white"/>
<path d="M12.4985 39.7505H9.93735V42.3117H12.4985V39.7505Z" fill="white"/>
<path d="M14.9829 39.7505H12.4217V42.3117H14.9829V39.7505Z" fill="white"/>
<path d="M14.9061 42.3118V40.6213C14.9061 40.1404 15.2959 39.7505 15.7769 39.7505H16.5964C17.0774 39.7505 17.4672 40.1404 17.4672 40.6213V42.3118H14.9061Z" fill="white"/>
<path d="M19.8748 40.483V41.5818C19.8748 41.9865 20.2026 42.3117 20.6073 42.3117H21.706C22.1132 42.3117 22.4385 41.9839 22.4385 41.5792V40.483C22.4359 40.0758 22.1081 39.7505 21.7034 39.7505H20.6073C20.2026 39.7505 19.8748 40.0783 19.8748 40.483Z" fill="white"/>
<path d="M29.889 42.3118H28.1986C27.7177 42.3118 27.3278 41.9219 27.3278 41.4409V40.6213C27.3278 40.1404 27.7177 39.7505 28.1986 39.7505H29.889V42.3118Z" fill="white"/>
<path d="M32.3732 39.7505H29.812V42.3117H32.3732V39.7505Z" fill="white"/>
<path d="M34.8576 39.7505H32.2964V42.3117H34.8576V39.7505Z" fill="white"/>
<path d="M39.8263 39.7505V42.3117H38.1359C37.655 42.3117 37.2651 41.9219 37.2651 41.4409V39.7505H39.8263Z" fill="white"/>
<path d="M39.7495 42.3118V40.6213C39.7495 40.1404 40.1393 39.7505 40.6203 39.7505H41.4398C41.9208 39.7505 42.3106 40.1404 42.3106 40.6213V42.3118H39.7495Z" fill="white"/>
<path d="M44.7181 40.483V41.5818C44.7181 41.9865 45.0459 42.3117 45.4506 42.3117H46.5494C46.9566 42.3117 47.2818 41.9839 47.2818 41.5792V40.483C47.2793 40.0758 46.9515 39.7505 46.5468 39.7505H45.4506C45.0459 39.7505 44.7181 40.0783 44.7181 40.483Z" fill="white"/>
<path d="M52.248 39.7505V42.3117H50.5576C50.0766 42.3117 49.6868 41.9219 49.6868 41.4409V39.7505H52.248Z" fill="white"/>
<path d="M52.1712 42.3118V40.6213C52.1712 40.1404 52.561 39.7505 53.042 39.7505H53.8615C54.3425 39.7505 54.7323 40.1404 54.7323 40.6213V42.3118H52.1712Z" fill="white"/>
<path d="M58.9199 42.2605V42.3117H59.7011V41.5305H59.6498C59.6498 41.9352 59.322 42.2605 58.9199 42.2605Z" fill="white"/>
<path d="M59.6242 42.3118V40.6213C59.6242 40.1404 60.014 39.7505 60.495 39.7505H61.3146C61.7955 39.7505 62.1854 40.1404 62.1854 40.6213V42.3118H59.6242Z" fill="white"/>
<path d="M67.154 42.3118H64.5928V40.6213C64.5928 40.1404 64.9827 39.7505 65.4636 39.7505H67.154V42.3118Z" fill="white"/>
<path d="M69.6384 39.7505H67.0772V42.3117H69.6384V39.7505Z" fill="white"/>
<path d="M69.5615 39.7505H72.1227V41.4409C72.1227 41.9219 71.7328 42.3117 71.2519 42.3117H69.5615V39.7505Z" fill="white"/>
<path d="M77.0914 39.7505V42.3117H75.401C74.9201 42.3117 74.5302 41.9219 74.5302 41.4409V39.7505H77.0914Z" fill="white"/>
<path d="M79.5757 39.7505H77.0146V42.3117H79.5757V39.7505Z" fill="white"/>
<path d="M79.4989 42.3118V40.6213C79.4989 40.1404 79.8888 39.7505 80.3697 39.7505H81.1893C81.6702 39.7505 82.0601 40.1404 82.0601 40.6213V42.3118H79.4989Z" fill="white"/>
<path d="M83.7633 42.2605V42.3117H84.5445V41.5305H84.4932C84.4932 41.9352 84.1654 42.2605 83.7633 42.2605Z" fill="white"/>
<path d="M84.4676 42.3118V40.6213C84.4676 40.1404 84.8574 39.7505 85.3384 39.7505H86.1579C86.6389 39.7505 87.0287 40.1404 87.0287 40.6213V42.3118H84.4676Z" fill="white"/>
<path d="M89.4362 40.483V41.5818C89.4362 41.9865 89.7641 42.3117 90.1687 42.3117H91.2675C91.6747 42.3117 92 41.9839 92 41.5792V40.483C91.9974 40.0758 91.6696 39.7505 91.2649 39.7505H90.1687C89.7641 39.7505 89.4362 40.0783 89.4362 40.483Z" fill="white"/>
<path d="M2.56119 44.7963H0.870812C0.389882 44.7963 1.19209e-05 44.4064 1.19209e-05 43.9254V43.1058C1.19209e-05 42.6249 0.389882 42.235 0.870812 42.235H2.56119L2.56119 44.7963Z" fill="white"/>
<path d="M5.04549 42.235H2.48431V44.7962H5.04549V42.235Z" fill="white"/>
<path d="M7.5299 42.235H4.96872V44.7962H7.5299V42.235Z" fill="white"/>
<path d="M10.0142 42.235H7.45303V44.7962H10.0142V42.235Z" fill="white"/>
<path d="M12.4985 42.235H9.93735V44.7962H12.4985V42.235Z" fill="white"/>
<path d="M14.9829 42.235H12.4217V44.7962H14.9829V42.235Z" fill="white"/>
<path d="M24.9202 44.7963H23.2299C22.7489 44.7963 22.3591 44.4064 22.3591 43.9254V43.1058C22.3591 42.6249 22.7489 42.235 23.2299 42.235H24.9202V44.7963Z" fill="white"/>
<path d="M24.8434 44.7963V43.1058C24.8434 42.6249 25.2333 42.235 25.7142 42.235H26.5338C27.0147 42.235 27.4046 42.6249 27.4046 43.1058V44.7963H24.8434Z" fill="white"/>
<path d="M34.8576 42.235V43.9254C34.8576 44.4064 34.4677 44.7962 33.9868 44.7962H33.1672C32.6863 44.7962 32.2964 44.4064 32.2964 43.9254V42.235H34.8576Z" fill="white"/>
<path d="M42.2338 42.9675V44.0663C42.2338 44.471 42.5616 44.7962 42.9663 44.7962H44.065C44.4723 44.7962 44.7975 44.4684 44.7975 44.0637V42.9675C44.795 42.5603 44.4671 42.235 44.0625 42.235H42.9663C42.5616 42.235 42.2338 42.5628 42.2338 42.9675Z" fill="white"/>
<path d="M46.4981 44.745V44.7962H47.2793V44.015H47.2281C47.2281 44.4197 46.9002 44.745 46.4981 44.745Z" fill="white"/>
<path d="M47.2024 44.7963V43.1058C47.2024 42.6249 47.5923 42.235 48.0732 42.235H48.8928C49.3737 42.235 49.7636 42.6249 49.7636 43.1058V44.7963H47.2024Z" fill="white"/>
<path d="M56.4355 44.745V44.7962H57.2167V44.015H57.1655C57.1655 44.4197 56.8376 44.745 56.4355 44.745Z" fill="white"/>
<path d="M59.701 44.7963H57.1398V43.1058C57.1398 42.6249 57.5297 42.235 58.0106 42.235H59.701V44.7963Z" fill="white"/>
<path d="M59.6242 42.235H62.1854V43.9254C62.1854 44.4064 61.7955 44.7962 61.3146 44.7962H59.6242V42.235Z" fill="white"/>
<path d="M67.154 42.235H64.5928V44.7962H67.154V42.235Z" fill="white"/>
<path d="M79.5757 42.235V43.9254C79.5757 44.4064 79.1859 44.7962 78.7049 44.7962H77.8854C77.4044 44.7962 77.0146 44.4064 77.0146 43.9254V42.235H79.5757Z" fill="white"/>
<path d="M84.5444 44.7963H82.8541C82.3731 44.7963 81.9833 44.4064 81.9833 43.9254V43.1058C81.9833 42.6249 82.3731 42.235 82.8541 42.235H84.5444V44.7963Z" fill="white"/>
<path d="M87.0288 42.235H84.4676V44.7962H87.0288V42.235Z" fill="white"/>
<path d="M5.0455 44.7195V47.2807H3.35513C2.8742 47.2807 2.48433 46.8908 2.48433 46.4099V44.7195H5.0455Z" fill="white"/>
<path d="M7.5299 44.7195H4.96872V47.2807H7.5299V44.7195Z" fill="white"/>
<path d="M14.9829 44.7195V47.2807H13.2925C12.8116 47.2807 12.4217 46.8908 12.4217 46.4099V44.7195H14.9829Z" fill="white"/>
<path d="M17.4672 44.7195H14.906V47.2807H17.4672V44.7195Z" fill="white"/>
<path d="M19.9516 44.7195H17.3904V47.2807H19.9516V44.7195Z" fill="white"/>
<path d="M19.8748 47.2805V44.7193H21.5651C22.0461 44.7193 22.4359 45.1092 22.4359 45.5901V47.2805H19.8748Z" fill="white"/>
<path d="M29.812 45.452V46.5508C29.812 46.9555 30.1399 47.2807 30.5445 47.2807H31.6433C32.0505 47.2807 32.3758 46.9529 32.3758 46.5482V45.452C32.3732 45.0448 32.0454 44.7195 31.6407 44.7195H30.5445C30.1399 44.7195 29.812 45.0473 29.812 45.452Z" fill="white"/>
<path d="M37.2651 45.452V46.5508C37.2651 46.9555 37.5929 47.2807 37.9976 47.2807H39.0963C39.5036 47.2807 39.8288 46.9529 39.8288 46.5482V45.452C39.8263 45.0448 39.4985 44.7195 39.0938 44.7195H37.9976C37.5929 44.7195 37.2651 45.0473 37.2651 45.452Z" fill="white"/>
<path d="M47.2793 47.2805H44.7182V45.5901C44.7182 45.1092 45.108 44.7193 45.589 44.7193H47.2793V47.2805Z" fill="white"/>
<path d="M49.7636 44.7195H47.2024V47.2807H49.7636V44.7195Z" fill="white"/>
<path d="M54.7323 47.2805H53.042C52.561 47.2805 52.1712 46.8906 52.1712 46.4097V45.5901C52.1712 45.1092 52.561 44.7193 53.042 44.7193H54.7323V47.2805Z" fill="white"/>
<path d="M57.2167 44.7195H54.6555V47.2807H57.2167V44.7195Z" fill="white"/>
<path d="M57.1398 44.7195H59.701V46.4099C59.701 46.8908 59.3111 47.2807 58.8302 47.2807H57.1398V44.7195Z" fill="white"/>
<path d="M67.154 44.7195V47.2807H65.4636C64.9827 47.2807 64.5928 46.8908 64.5928 46.4099V44.7195H67.154Z" fill="white"/>
<path d="M69.6384 44.7195H67.0772V47.2807H69.6384V44.7195Z" fill="white"/>
<path d="M69.5615 47.2805V45.5901C69.5615 45.1092 69.9514 44.7193 70.4323 44.7193H71.2519C71.7328 44.7193 72.1227 45.1092 72.1227 45.5901V47.2805H69.5615Z" fill="white"/>
<path d="M74.5302 45.452V46.5508C74.5302 46.9555 74.8581 47.2807 75.2627 47.2807H76.3615C76.7687 47.2807 77.094 46.9529 77.094 46.5482V45.452C77.0914 45.0448 76.7636 44.7195 76.3589 44.7195H75.2627C74.8581 44.7195 74.5302 45.0473 74.5302 45.452Z" fill="white"/>
<path d="M79.4989 45.452V46.5508C79.4989 46.9555 79.8267 47.2807 80.2314 47.2807H81.3301C81.7374 47.2807 82.0626 46.9529 82.0626 46.5482V45.452C82.0601 45.0448 81.7322 44.7195 81.3276 44.7195H80.2314C79.8267 44.7195 79.4989 45.0473 79.4989 45.452Z" fill="white"/>
<path d="M87.0287 44.7195V47.2807H85.3383C84.8574 47.2807 84.4675 46.8908 84.4675 46.4099V44.7195H87.0287Z" fill="white"/>
<path d="M89.5131 44.7195H86.9519V47.2807H89.5131V44.7195Z" fill="white"/>
<path d="M89.4363 47.2805V44.7193H91.1267C91.6076 44.7193 91.9975 45.1092 91.9975 45.5901V47.2805H89.4363Z" fill="white"/>
<path d="M7.52988 47.2037V49.765H5.8395C5.35857 49.765 4.9687 49.3751 4.9687 48.8942V47.2037H7.52988Z" fill="white"/>
<path d="M7.45306 49.765V48.0746C7.45306 47.5936 7.84293 47.2038 8.32386 47.2038H9.14344C9.62437 47.2038 10.0142 47.5936 10.0142 48.0746V49.765H7.45306Z" fill="white"/>
<path d="M22.4359 47.2037V48.8942C22.4359 49.3751 22.046 49.765 21.5651 49.765H20.7455C20.2646 49.765 19.8747 49.3751 19.8747 48.8942V47.2037H22.4359Z" fill="white"/>
<path d="M24.1391 49.7137V49.7649H24.9203V48.9838H24.869C24.869 49.3884 24.5412 49.7137 24.1391 49.7137Z" fill="white"/>
<path d="M27.4046 49.765H24.8434V48.0746C24.8434 47.5936 25.2333 47.2038 25.7142 47.2038H27.4046V49.765Z" fill="white"/>
<path d="M27.3278 49.765V47.2038H29.0182C29.4991 47.2038 29.889 47.5936 29.889 48.0746V49.765H27.3278Z" fill="white"/>
<path d="M39.7495 47.9363V49.035C39.7495 49.4397 40.0773 49.765 40.482 49.765H41.5807C41.9879 49.765 42.3132 49.4371 42.3132 49.0325V47.9363C42.3107 47.529 41.9828 47.2037 41.5782 47.2037H40.482C40.0773 47.2037 39.7495 47.5316 39.7495 47.9363Z" fill="white"/>
<path d="M47.2793 47.2037H44.7181V49.765H47.2793V47.2037Z" fill="white"/>
<path d="M49.7636 47.2037H47.2024V49.765H49.7636V47.2037Z" fill="white"/>
<path d="M57.2167 47.2037H54.6555V49.765H57.2167V47.2037Z" fill="white"/>
<path d="M59.6242 47.9363V49.035C59.6242 49.4397 59.952 49.765 60.3567 49.765H61.4554C61.8626 49.765 62.1879 49.4371 62.1879 49.0325V47.9363C62.1854 47.529 61.8575 47.2037 61.4529 47.2037H60.3567C59.952 47.2037 59.6242 47.5316 59.6242 47.9363Z" fill="white"/>
<path d="M81.2789 49.7137V49.7649H82.0601V48.9838H82.0088C82.0088 49.3884 81.681 49.7137 81.2789 49.7137Z" fill="white"/>
<path d="M81.9833 49.765V48.0746C81.9833 47.5936 82.3732 47.2038 82.8541 47.2038H83.6737C84.1546 47.2038 84.5445 47.5936 84.5445 48.0746V49.765H81.9833Z" fill="white"/>
<path d="M86.2476 49.7137V49.7649H87.0287V48.9838H86.9775C86.9775 49.3884 86.6497 49.7137 86.2476 49.7137Z" fill="white"/>
<path d="M89.5131 47.2037H86.9519V49.765H89.5131V47.2037Z" fill="white"/>
<path d="M91.9974 47.2037H89.4362V49.765H91.9974V47.2037Z" fill="white"/>
<path d="M2.56119 52.2495H1.19209e-05V50.5591C1.19209e-05 50.0781 0.389882 49.6883 0.870812 49.6883H2.56119L2.56119 52.2495Z" fill="white"/>
<path d="M2.48431 52.2495V50.5591C2.48431 50.0781 2.87418 49.6883 3.35511 49.6883H4.17469C4.65562 49.6883 5.04549 50.0781 5.04549 50.5591V52.2495H2.48431Z" fill="white"/>
<path d="M14.9829 52.2495H13.2925C12.8116 52.2495 12.4217 51.8596 12.4217 51.3787V50.5591C12.4217 50.0781 12.8116 49.6883 13.2925 49.6883H14.9829V52.2495Z" fill="white"/>
<path d="M14.9061 52.2495V50.5591C14.9061 50.0781 15.2959 49.6883 15.7769 49.6883H16.5964C17.0774 49.6883 17.4672 50.0781 17.4672 50.5591V52.2495H14.9061Z" fill="white"/>
<path d="M24.9202 52.2495H23.2299C22.7489 52.2495 22.3591 51.8596 22.3591 51.3787V50.5591C22.3591 50.0781 22.7489 49.6883 23.2299 49.6883H24.9202V52.2495Z" fill="white"/>
<path d="M27.4046 49.6882H24.8434V52.2495H27.4046V49.6882Z" fill="white"/>
<path d="M29.8889 49.6882H27.3278V52.2495H29.8889V49.6882Z" fill="white"/>
<path d="M34.7808 52.2495V50.5591C34.7808 50.0781 35.1707 49.6883 35.6516 49.6883H36.4712C36.9521 49.6883 37.342 50.0781 37.342 50.5591V52.2495H34.7808Z" fill="white"/>
<path d="M44.0138 52.1982V52.2494H44.795V51.4683H44.7438C44.7438 51.8729 44.4159 52.1982 44.0138 52.1982Z" fill="white"/>
<path d="M47.2793 49.6882H44.7181V52.2495H47.2793V49.6882Z" fill="white"/>
<path d="M49.7636 49.6882H47.2024V52.2495H49.7636V49.6882Z" fill="white"/>
<path d="M57.2166 49.6882V51.3787C57.2166 51.8596 56.8268 52.2495 56.3458 52.2495H55.5263C55.0453 52.2495 54.6555 51.8596 54.6555 51.3787V49.6882H57.2166Z" fill="white"/>
<path d="M61.4042 52.1982V52.2494H62.1853V51.4683H62.1341C62.1341 51.8729 61.8063 52.1982 61.4042 52.1982Z" fill="white"/>
<path d="M64.6697 52.2495H62.1086V50.5591C62.1086 50.0781 62.4984 49.6883 62.9794 49.6883H64.6697V52.2495Z" fill="white"/>
<path d="M67.154 49.6882H64.5928V52.2495H67.154V49.6882Z" fill="white"/>
<path d="M67.0772 52.2495V50.5591C67.0772 50.0781 67.4671 49.6883 67.948 49.6883H68.7676C69.2485 49.6883 69.6384 50.0781 69.6384 50.5591V52.2495H67.0772Z" fill="white"/>
<path d="M74.607 52.2495H72.9166C72.4357 52.2495 72.0458 51.8596 72.0458 51.3787V50.5591C72.0458 50.0781 72.4357 49.6883 72.9166 49.6883H74.607V52.2495Z" fill="white"/>
<path d="M77.0914 49.6882H74.5302V52.2495H77.0914V49.6882Z" fill="white"/>
<path d="M79.5757 49.6882H77.0146V52.2495H79.5757V49.6882Z" fill="white"/>
<path d="M82.0601 49.6882H79.4989V52.2495H82.0601V49.6882Z" fill="white"/>
<path d="M84.5445 49.6882H81.9833V52.2495H84.5445V49.6882Z" fill="white"/>
<path d="M87.0288 49.6882H84.4676V52.2495H87.0288V49.6882Z" fill="white"/>
<path d="M89.5131 49.6882H86.9519V52.2495H89.5131V49.6882Z" fill="white"/>
<path d="M89.4362 49.6882H91.9974V51.3787C91.9974 51.8596 91.6076 52.2495 91.1266 52.2495H89.4362V49.6882Z" fill="white"/>
<path d="M2.56118 52.1726H0V54.7339H2.56118V52.1726Z" fill="white"/>
<path d="M19.9515 54.7338H18.2612C17.7802 54.7338 17.3904 54.3439 17.3904 53.8629V53.0433C17.3904 52.5624 17.7802 52.1725 18.2612 52.1725H19.9515V54.7338Z" fill="white"/>
<path d="M19.8748 54.7338V52.1725H21.5651C22.0461 52.1725 22.4359 52.5624 22.4359 53.0433V54.7338H19.8748Z" fill="white"/>
<path d="M29.889 52.1726V54.7339H28.1986C27.7177 54.7339 27.3278 54.344 27.3278 53.863V52.1726H29.889Z" fill="white"/>
<path d="M29.812 54.7338V52.1725H31.5024C31.9833 52.1725 32.3732 52.5624 32.3732 53.0433V54.7338H29.812Z" fill="white"/>
<path d="M37.3419 52.1726V53.863C37.3419 54.344 36.9521 54.7339 36.4711 54.7339H35.6516C35.1706 54.7339 34.7808 54.344 34.7808 53.863V52.1726H37.3419Z" fill="white"/>
<path d="M42.3106 54.7338H39.7494V53.0433C39.7494 52.5624 40.1393 52.1725 40.6202 52.1725H42.3106V54.7338Z" fill="white"/>
<path d="M44.795 52.1726H42.2338V54.7339H44.795V52.1726Z" fill="white"/>
<path d="M47.2793 52.1726H44.7181V54.7339H47.2793V52.1726Z" fill="white"/>
<path d="M49.7636 52.1726H47.2024V54.7339H49.7636V52.1726Z" fill="white"/>
<path d="M49.6868 54.7338V52.1725H51.3772C51.8581 52.1725 52.248 52.5624 52.248 53.0433V54.7338H49.6868Z" fill="white"/>
<path d="M59.701 54.7338H57.1398V53.0433C57.1398 52.5624 57.5297 52.1725 58.0106 52.1725H59.701V54.7338Z" fill="white"/>
<path d="M62.1854 52.1726H59.6242V54.7339H62.1854V52.1726Z" fill="white"/>
<path d="M64.6697 52.1726H62.1085V54.7339H64.6697V52.1726Z" fill="white"/>
<path d="M79.5757 52.1726V53.863C79.5757 54.344 79.1859 54.7339 78.7049 54.7339H77.8854C77.4044 54.7339 77.0146 54.344 77.0146 53.863V52.1726H79.5757Z" fill="white"/>
<path d="M87.0288 52.1726H84.4676V54.7339H87.0288V52.1726Z" fill="white"/>
<path d="M86.9519 52.1726H89.5131V53.863C89.5131 54.344 89.1232 54.7339 88.6423 54.7339H86.9519V52.1726Z" fill="white"/>
<path d="M2.56119 54.657V56.3474C2.56119 56.8283 2.17132 57.2182 1.69039 57.2182H0.870812C0.389882 57.2182 1.19209e-05 56.8283 1.19209e-05 56.3474V54.657H2.56119Z" fill="white"/>
<path d="M10.0143 57.2184H8.32388C7.84295 57.2184 7.45308 56.8285 7.45308 56.3476V55.528C7.45308 55.047 7.84295 54.6571 8.32388 54.6571H10.0143V57.2184Z" fill="white"/>
<path d="M12.4985 54.657H9.93735V57.2182H12.4985V54.657Z" fill="white"/>
<path d="M14.9829 54.657H12.4217V57.2182H14.9829V54.657Z" fill="white"/>
<path d="M14.9061 57.2184V55.528C14.9061 55.047 15.2959 54.6571 15.7769 54.6571H16.5964C17.0774 54.6571 17.4672 55.047 17.4672 55.528V57.2184H14.9061Z" fill="white"/>
<path d="M22.4359 54.657H19.8748V57.2182H22.4359V54.657Z" fill="white"/>
<path d="M22.3591 57.2184V54.6571H24.0495C24.5304 54.6571 24.9203 55.047 24.9203 55.528V57.2184H22.3591Z" fill="white"/>
<path d="M32.3732 54.657H29.812V57.2182H32.3732V54.657Z" fill="white"/>
<path d="M32.2964 57.2184V54.6571H33.9868C34.4677 54.6571 34.8576 55.047 34.8576 55.528V57.2184H32.2964Z" fill="white"/>
<path d="M42.3106 54.657V57.2182H40.6202C40.1393 57.2182 39.7494 56.8283 39.7494 56.3474V54.657H42.3106Z" fill="white"/>
<path d="M42.2338 54.657H44.795V56.3474C44.795 56.8283 44.4051 57.2182 43.9242 57.2182H42.2338V54.657Z" fill="white"/>
<path d="M52.248 54.657V56.3474C52.248 56.8283 51.8581 57.2182 51.3772 57.2182H50.5576C50.0766 57.2182 49.6868 56.8283 49.6868 56.3474V54.657H52.248Z" fill="white"/>
<path d="M56.4355 57.1671V57.2183H57.2167V56.4371H57.1655C57.1655 56.8418 56.8376 57.1671 56.4355 57.1671Z" fill="white"/>
<path d="M59.701 54.657H57.1398V57.2182H59.701V54.657Z" fill="white"/>
<path d="M62.1854 54.657H59.6242V57.2182H62.1854V54.657Z" fill="white"/>
<path d="M64.6697 54.657H62.1085V57.2182H64.6697V54.657Z" fill="white"/>
<path d="M67.154 54.657H64.5928V57.2182H67.154V54.657Z" fill="white"/>
<path d="M67.0772 57.2184V55.528C67.0772 55.047 67.4671 54.6571 67.948 54.6571H68.7676C69.2485 54.6571 69.6384 55.047 69.6384 55.528V57.2184H67.0772Z" fill="white"/>
<path d="M72.0459 55.3895V56.4883C72.0459 56.893 72.3737 57.2182 72.7784 57.2182H73.8771C74.2843 57.2182 74.6096 56.8904 74.6096 56.4857V55.3895C74.607 54.9823 74.2792 54.657 73.8745 54.657H72.7784C72.3737 54.657 72.0459 54.9848 72.0459 55.3895Z" fill="white"/>
<path d="M87.0287 54.657V56.3474C87.0287 56.8283 86.6388 57.2182 86.1579 57.2182H85.3383C84.8574 57.2182 84.4675 56.8283 84.4675 56.3474V54.657H87.0287Z" fill="white"/>
<path d="M89.4362 55.3895V56.4883C89.4362 56.893 89.7641 57.2182 90.1687 57.2182H91.2675C91.6747 57.2182 92 56.8904 92 56.4857V55.3895C91.9974 54.9823 91.6696 54.657 91.2649 54.657H90.1687C89.7641 54.657 89.4362 54.9848 89.4362 55.3895Z" fill="white"/>
<path d="M12.4985 57.1415V59.7027H10.8082C10.3272 59.7027 9.93736 59.3128 9.93736 58.8319V57.1415H12.4985Z" fill="white"/>
<path d="M14.9829 57.1415H12.4217V59.7027H14.9829V57.1415Z" fill="white"/>
<path d="M22.4359 57.1415V59.7027H20.7455C20.2646 59.7027 19.8747 59.3128 19.8747 58.8319V57.1415H22.4359Z" fill="white"/>
<path d="M24.9203 57.1415H22.3591V59.7027H24.9203V57.1415Z" fill="white"/>
<path d="M29.889 59.7028H27.3278V58.0123C27.3278 57.5314 27.7177 57.1415 28.1986 57.1415H29.889V59.7028Z" fill="white"/>
<path d="M32.3732 57.1415H29.812V59.7027H32.3732V57.1415Z" fill="white"/>
<path d="M34.8576 57.1415H32.2964V59.7027H34.8576V57.1415Z" fill="white"/>
<path d="M37.3419 57.1415H34.7808V59.7027H37.3419V57.1415Z" fill="white"/>
<path d="M37.2651 59.7028V58.0123C37.2651 57.5314 37.655 57.1415 38.1359 57.1415H38.9555C39.4364 57.1415 39.8263 57.5314 39.8263 58.0123V59.7028H37.2651Z" fill="white"/>
<path d="M44.7181 59.7028V58.0123C44.7181 57.5314 45.108 57.1415 45.5889 57.1415H46.4085C46.8894 57.1415 47.2793 57.5314 47.2793 58.0123V59.7028H44.7181Z" fill="white"/>
<path d="M57.2166 59.7028H54.6555V58.0123C54.6555 57.5314 55.0453 57.1415 55.5263 57.1415H57.2166V59.7028Z" fill="white"/>
<path d="M59.701 57.1415H57.1398V59.7027H59.701V57.1415Z" fill="white"/>
<path d="M62.1854 57.1415H59.6242V59.7027H62.1854V57.1415Z" fill="white"/>
<path d="M62.1085 57.1415H64.6697V58.8319C64.6697 59.3128 64.2798 59.7027 63.7989 59.7027H62.1085V57.1415Z" fill="white"/>
<path d="M77.0146 59.7028V58.0123C77.0146 57.5314 77.4044 57.1415 77.8854 57.1415H78.7049C79.1859 57.1415 79.5757 57.5314 79.5757 58.0123V59.7028H77.0146Z" fill="white"/>
<path d="M1.78 62.136V62.1872H2.56116V61.406H2.50993C2.50993 61.8107 2.1821 62.136 1.78 62.136Z" fill="white"/>
<path d="M2.48431 62.187V60.4966C2.48431 60.0156 2.87418 59.6258 3.35511 59.6258H4.17469C4.65562 59.6258 5.04549 60.0156 5.04549 60.4966V62.187H2.48431Z" fill="white"/>
<path d="M14.9829 59.6257H12.4217V62.187H14.9829V59.6257Z" fill="white"/>
<path d="M14.9061 62.187V60.4966C14.9061 60.0156 15.2959 59.6258 15.7769 59.6258H16.5964C17.0774 59.6258 17.4672 60.0156 17.4672 60.4966V62.187H14.9061Z" fill="white"/>
<path d="M24.9203 59.6257H22.3591V62.187H24.9203V59.6257Z" fill="white"/>
<path d="M29.889 59.6257V61.3162C29.889 61.7971 29.4991 62.187 29.0182 62.187H28.1986C27.7177 62.187 27.3278 61.7971 27.3278 61.3162V59.6257H29.889Z" fill="white"/>
<path d="M34.8576 59.6257H32.2964V62.187H34.8576V59.6257Z" fill="white"/>
<path d="M39.7495 62.187V60.4966C39.7495 60.0156 40.1393 59.6258 40.6203 59.6258H41.4398C41.9208 59.6258 42.3106 60.0156 42.3106 60.4966V62.187H39.7495Z" fill="white"/>
<path d="M47.2793 59.6257V62.187H45.589C45.108 62.187 44.7182 61.7971 44.7182 61.3162V59.6257H47.2793Z" fill="white"/>
<path d="M49.7636 59.6257H47.2024V62.187H49.7636V59.6257Z" fill="white"/>
<path d="M49.6868 62.187V59.6258H51.3772C51.8581 59.6258 52.248 60.0156 52.248 60.4966V62.187H49.6868Z" fill="white"/>
<path d="M57.2166 59.6257V61.3162C57.2166 61.7971 56.8268 62.187 56.3458 62.187H55.5263C55.0453 62.187 54.6555 61.7971 54.6555 61.3162V59.6257H57.2166Z" fill="white"/>
<path d="M62.1854 59.6257V61.3162C62.1854 61.7971 61.7955 62.187 61.3146 62.187H60.495C60.0141 62.187 59.6242 61.7971 59.6242 61.3162V59.6257H62.1854Z" fill="white"/>
<path d="M64.5928 60.3582V61.457C64.5928 61.8617 64.9206 62.187 65.3253 62.187H66.424C66.8313 62.187 67.1565 61.8591 67.1565 61.4545V60.3582C67.154 59.951 66.8261 59.6257 66.4215 59.6257H65.3253C64.9206 59.6257 64.5928 59.9536 64.5928 60.3582Z" fill="white"/>
<path d="M72.1227 62.187H70.4323C69.9514 62.187 69.5615 61.7971 69.5615 61.3162V60.4966C69.5615 60.0156 69.9514 59.6258 70.4323 59.6258H72.1227V62.187Z" fill="white"/>
<path d="M72.0459 62.187V60.4966C72.0459 60.0156 72.4357 59.6258 72.9167 59.6258H73.7362C74.2172 59.6258 74.607 60.0156 74.607 60.4966V62.187H72.0459Z" fill="white"/>
<path d="M79.5757 59.6257V62.187H77.8854C77.4044 62.187 77.0146 61.7971 77.0146 61.3162V59.6257H79.5757Z" fill="white"/>
<path d="M79.4989 62.187V60.4966C79.4989 60.0156 79.8888 59.6258 80.3697 59.6258H81.1893C81.6702 59.6258 82.0601 60.0156 82.0601 60.4966V62.187H79.4989Z" fill="white"/>
<path d="M87.0287 62.187H85.3383C84.8574 62.187 84.4675 61.7971 84.4675 61.3162V60.4966C84.4675 60.0156 84.8574 59.6258 85.3383 59.6258H87.0287V62.187Z" fill="white"/>
<path d="M89.5131 59.6257H86.9519V62.187H89.5131V59.6257Z" fill="white"/>
<path d="M89.4363 62.187V59.6258H91.1267C91.6076 59.6258 91.9975 60.0156 91.9975 60.4966V62.187H89.4363Z" fill="white"/>
<path d="M2.56119 64.6715H1.19209e-05V62.9811C1.19209e-05 62.5001 0.389882 62.1103 0.870812 62.1103H2.56119L2.56119 64.6715Z" fill="white"/>
<path d="M5.04549 62.1102H2.48431V64.6715H5.04549V62.1102Z" fill="white"/>
<path d="M4.96872 64.6715V62.9811C4.96872 62.5001 5.35859 62.1103 5.83952 62.1103H6.6591C7.14002 62.1103 7.5299 62.5001 7.5299 62.9811V64.6715H4.96872Z" fill="white"/>
<path d="M12.4985 64.6715H10.8082C10.3272 64.6715 9.93736 64.2816 9.93736 63.8007V62.9811C9.93736 62.5001 10.3272 62.1103 10.8082 62.1103H12.4985V64.6715Z" fill="white"/>
<path d="M12.4217 62.1102H14.9829V63.8007C14.9829 64.2816 14.593 64.6715 14.1121 64.6715H12.4217V62.1102Z" fill="white"/>
<path d="M24.9202 62.1102V64.6715H23.2299C22.7489 64.6715 22.3591 64.2816 22.3591 63.8007V62.1102H24.9202Z" fill="white"/>
<path d="M24.8434 64.6715V62.9811C24.8434 62.5001 25.2333 62.1103 25.7142 62.1103H26.5338C27.0147 62.1103 27.4046 62.5001 27.4046 62.9811V64.6715H24.8434Z" fill="white"/>
<path d="M34.8576 62.1102V63.8007C34.8576 64.2816 34.4677 64.6715 33.9868 64.6715H33.1672C32.6863 64.6715 32.2964 64.2816 32.2964 63.8007V62.1102H34.8576Z" fill="white"/>
<path d="M42.3107 62.1102H39.7495V64.6715H42.3107V62.1102Z" fill="white"/>
<path d="M42.2338 64.6715V62.9811C42.2338 62.5001 42.6237 62.1103 43.1046 62.1103H43.9242C44.4051 62.1103 44.795 62.5001 44.795 62.9811V64.6715H42.2338Z" fill="white"/>
<path d="M52.248 62.1102V64.6715H50.5576C50.0766 64.6715 49.6868 64.2816 49.6868 63.8007V62.1102H52.248Z" fill="white"/>
<path d="M52.1712 64.6715V62.1103H53.8615C54.3425 62.1103 54.7323 62.5001 54.7323 62.9811V64.6715H52.1712Z" fill="white"/>
<path d="M67.0772 64.6715V62.9811C67.0772 62.5001 67.4671 62.1103 67.948 62.1103H68.7676C69.2485 62.1103 69.6384 62.5001 69.6384 62.9811V64.6715H67.0772Z" fill="white"/>
<path d="M74.5302 64.6715V62.9811C74.5302 62.5001 74.9201 62.1103 75.401 62.1103H76.2206C76.7015 62.1103 77.0914 62.5001 77.0914 62.9811V64.6715H74.5302Z" fill="white"/>
<path d="M89.5131 62.1102H86.9519V64.6715H89.5131V62.1102Z" fill="white"/>
<path d="M91.9974 62.1102H89.4362V64.6715H91.9974V62.1102Z" fill="white"/>
<path d="M2.56118 64.5946H0V67.1559H2.56118V64.5946Z" fill="white"/>
<path d="M14.906 65.3271V66.4259C14.906 66.8306 15.2339 67.1559 15.6385 67.1559H16.7373C17.1445 67.1559 17.4698 66.828 17.4698 66.4233V65.3271C17.4672 64.9199 17.1394 64.5946 16.7347 64.5946H15.6385C15.2339 64.5946 14.906 64.9224 14.906 65.3271Z" fill="white"/>
<path d="M27.3278 65.3271V66.4259C27.3278 66.8306 27.6556 67.1559 28.0603 67.1559H29.159C29.5662 67.1559 29.8915 66.828 29.8915 66.4233V65.3271C29.8889 64.9199 29.5611 64.5946 29.1564 64.5946H28.0603C27.6556 64.5946 27.3278 64.9224 27.3278 65.3271Z" fill="white"/>
<path d="M39.0451 67.1046V67.1558H39.8263V66.3746H39.775C39.775 66.7793 39.4472 67.1046 39.0451 67.1046Z" fill="white"/>
<path d="M42.3107 64.5946H39.7495V67.1559H42.3107V64.5946Z" fill="white"/>
<path d="M44.7181 67.156V65.4656C44.7181 64.9846 45.108 64.5948 45.5889 64.5948H46.4085C46.8894 64.5948 47.2793 64.9846 47.2793 65.4656V67.156H44.7181Z" fill="white"/>
<path d="M54.7323 64.5946H52.1712V67.1559H54.7323V64.5946Z" fill="white"/>
<path d="M57.2167 64.5946H54.6555V67.1559H57.2167V64.5946Z" fill="white"/>
<path d="M59.701 64.5946H57.1398V67.1559H59.701V64.5946Z" fill="white"/>
<path d="M62.1854 64.5946H59.6242V67.1559H62.1854V64.5946Z" fill="white"/>
<path d="M62.1086 67.156V65.4656C62.1086 64.9846 62.4984 64.5948 62.9794 64.5948H63.7989C64.2799 64.5948 64.6697 64.9846 64.6697 65.4656V67.156H62.1086Z" fill="white"/>
<path d="M66.3728 67.1046V67.1558H67.154V66.3746H67.1028C67.1028 66.7793 66.7749 67.1046 66.3728 67.1046Z" fill="white"/>
<path d="M69.6384 64.5946H67.0772V67.1559H69.6384V64.5946Z" fill="white"/>
<path d="M69.5615 67.156V65.4656C69.5615 64.9846 69.9514 64.5948 70.4323 64.5948H71.2519C71.7328 64.5948 72.1227 64.9846 72.1227 65.4656V67.156H69.5615Z" fill="white"/>
<path d="M77.0914 64.5946V66.285C77.0914 66.766 76.7015 67.1559 76.2206 67.1559H75.401C74.9201 67.1559 74.5302 66.766 74.5302 66.285V64.5946H77.0914Z" fill="white"/>
<path d="M82.0601 67.156H80.3697C79.8888 67.156 79.4989 66.7661 79.4989 66.2852V65.4656C79.4989 64.9846 79.8888 64.5948 80.3697 64.5948H82.0601V67.156Z" fill="white"/>
<path d="M84.5445 64.5946H81.9833V67.1559H84.5445V64.5946Z" fill="white"/>
<path d="M87.0288 64.5946H84.4676V67.1559H87.0288V64.5946Z" fill="white"/>
<path d="M89.5131 64.5946H86.9519V67.1559H89.5131V64.5946Z" fill="white"/>
<path d="M89.4362 64.5946H91.9974V66.285C91.9974 66.766 91.6076 67.1559 91.1266 67.1559H89.4362V64.5946Z" fill="white"/>
<path d="M2.56118 67.079H0V69.6402H2.56118V67.079Z" fill="white"/>
<path d="M10.0143 69.6404H8.32388C7.84295 69.6404 7.45308 69.2505 7.45308 68.7696V67.95C7.45308 67.469 7.84295 67.0791 8.32388 67.0791H10.0143V69.6404Z" fill="white"/>
<path d="M9.93735 69.6404V67.95C9.93735 67.469 10.3272 67.0791 10.8081 67.0791H11.6277C12.1087 67.0791 12.4985 67.469 12.4985 67.95V69.6404H9.93735Z" fill="white"/>
<path d="M16.686 69.5892V69.6404H17.4672V68.8593H17.416C17.416 69.2639 17.0881 69.5892 16.686 69.5892Z" fill="white"/>
<path d="M19.9515 69.6404H17.3904V67.95C17.3904 67.469 17.7802 67.0791 18.2612 67.0791H19.9515V69.6404Z" fill="white"/>
<path d="M19.8748 69.6404V67.95C19.8748 67.469 20.2646 67.0791 20.7456 67.0791H21.5651C22.0461 67.0791 22.4359 67.469 22.4359 67.95V69.6404H19.8748Z" fill="white"/>
<path d="M24.8434 67.8115V68.9103C24.8434 69.3149 25.1712 69.6402 25.5759 69.6402H26.6747C27.0819 69.6402 27.4072 69.3124 27.4072 68.9077V67.8115C27.4046 67.4043 27.0768 67.079 26.6721 67.079H25.5759C25.1712 67.079 24.8434 67.4068 24.8434 67.8115Z" fill="white"/>
<path d="M32.3732 69.6404H30.6829C30.2019 69.6404 29.8121 69.2505 29.8121 68.7696V67.95C29.8121 67.469 30.2019 67.0791 30.6829 67.0791H32.3732V69.6404Z" fill="white"/>
<path d="M32.2964 69.6404V67.0791H33.9868C34.4677 67.0791 34.8576 67.469 34.8576 67.95V69.6404H32.2964Z" fill="white"/>
<path d="M39.8263 69.6404H38.1359C37.655 69.6404 37.2651 69.2505 37.2651 68.7696V67.95C37.2651 67.469 37.655 67.0791 38.1359 67.0791H39.8263V69.6404Z" fill="white"/>
<path d="M42.3107 67.079H39.7495V69.6402H42.3107V67.079Z" fill="white"/>
<path d="M47.2793 67.079V69.6402H45.589C45.108 69.6402 44.7182 69.2503 44.7182 68.7694V67.079H47.2793Z" fill="white"/>
<path d="M47.2024 69.6404V67.95C47.2024 67.469 47.5923 67.0791 48.0732 67.0791H48.8928C49.3737 67.0791 49.7636 67.469 49.7636 67.95V69.6404H47.2024Z" fill="white"/>
<path d="M54.7323 67.079H52.1712V69.6402H54.7323V67.079Z" fill="white"/>
<path d="M57.2167 67.079H54.6555V69.6402H57.2167V67.079Z" fill="white"/>
<path d="M59.701 67.079H57.1398V69.6402H59.701V67.079Z" fill="white"/>
<path d="M63.8885 69.5892V69.6404H64.6697V68.8593H64.6185C64.6185 69.2639 64.2906 69.5892 63.8885 69.5892Z" fill="white"/>
<path d="M67.154 69.6404H64.5928V67.95C64.5928 67.469 64.9827 67.0791 65.4636 67.0791H67.154V69.6404Z" fill="white"/>
<path d="M69.6384 67.079H67.0772V69.6402H69.6384V67.079Z" fill="white"/>
<path d="M71.3415 69.5892V69.6404H72.1227V68.8593H72.0715C72.0715 69.2639 71.7436 69.5892 71.3415 69.5892Z" fill="white"/>
<path d="M72.0459 69.6404V67.95C72.0459 67.469 72.4357 67.0791 72.9167 67.0791H73.7362C74.2172 67.0791 74.607 67.469 74.607 67.95V69.6404H72.0459Z" fill="white"/>
<path d="M84.5444 67.079V68.7694C84.5444 69.2503 84.1546 69.6402 83.6736 69.6402H82.8541C82.3731 69.6402 81.9833 69.2503 81.9833 68.7694V67.079H84.5444Z" fill="white"/>
<path d="M2.56119 69.5635V71.2539C2.56119 71.7348 2.17132 72.1247 1.69039 72.1247H0.870812C0.389882 72.1247 1.19209e-05 71.7348 1.19209e-05 71.2539V69.5635H2.56119Z" fill="white"/>
<path d="M4.96872 70.296V71.3948C4.96872 71.7994 5.29655 72.1247 5.70122 72.1247H6.79996C7.20719 72.1247 7.53246 71.7969 7.53246 71.3922V70.296C7.5299 69.8888 7.20206 69.5635 6.7974 69.5635H5.70122C5.29655 69.5635 4.96872 69.8913 4.96872 70.296Z" fill="white"/>
<path d="M14.9829 72.1248H13.2925C12.8116 72.1248 12.4217 71.7349 12.4217 71.2539V70.4343C12.4217 69.9534 12.8116 69.5635 13.2925 69.5635H14.9829V72.1248Z" fill="white"/>
<path d="M17.4672 69.5635H14.906V72.1247H17.4672V69.5635Z" fill="white"/>
<path d="M17.3904 69.5635H19.9516V71.2539C19.9516 71.7348 19.5617 72.1247 19.0808 72.1247H17.3904V69.5635Z" fill="white"/>
<path d="M27.3278 70.296V71.3948C27.3278 71.7994 27.6556 72.1247 28.0603 72.1247H29.159C29.5662 72.1247 29.8915 71.7969 29.8915 71.3922V70.296C29.8889 69.8888 29.5611 69.5635 29.1564 69.5635H28.0603C27.6556 69.5635 27.3278 69.8913 27.3278 70.296Z" fill="white"/>
<path d="M34.8576 69.5635H32.2964V72.1247H34.8576V69.5635Z" fill="white"/>
<path d="M34.7808 72.1248V69.5635H36.4712C36.9521 69.5635 37.342 69.9534 37.342 70.4343V72.1248H34.7808Z" fill="white"/>
<path d="M39.0451 72.0735V72.1247H39.8263V71.3435H39.775C39.775 71.7482 39.4472 72.0735 39.0451 72.0735Z" fill="white"/>
<path d="M42.3107 69.5635H39.7495V72.1247H42.3107V69.5635Z" fill="white"/>
<path d="M54.7323 69.5635V72.1247H53.042C52.561 72.1247 52.1712 71.7348 52.1712 71.2539V69.5635H54.7323Z" fill="white"/>
<path d="M57.2167 69.5635H54.6555V72.1247H57.2167V69.5635Z" fill="white"/>
<path d="M59.701 69.5635H57.1398V72.1247H59.701V69.5635Z" fill="white"/>
<path d="M64.6697 72.1248H62.9794C62.4984 72.1248 62.1086 71.7349 62.1086 71.2539V70.4343C62.1086 69.9534 62.4984 69.5635 62.9794 69.5635H64.6697V72.1248Z" fill="white"/>
<path d="M67.154 69.5635H64.5928V72.1247H67.154V69.5635Z" fill="white"/>
<path d="M69.6384 69.5635H67.0772V72.1247H69.6384V69.5635Z" fill="white"/>
<path d="M72.1227 69.5635H69.5615V72.1247H72.1227V69.5635Z" fill="white"/>
<path d="M74.607 69.5635H72.0459V72.1247H74.607V69.5635Z" fill="white"/>
<path d="M77.0914 69.5635H74.5302V72.1247H77.0914V69.5635Z" fill="white"/>
<path d="M79.5757 69.5635H77.0146V72.1247H79.5757V69.5635Z" fill="white"/>
<path d="M79.4989 72.1248V69.5635H81.1893C81.6702 69.5635 82.0601 69.9534 82.0601 70.4343V72.1248H79.4989Z" fill="white"/>
<path d="M87.0287 72.1248H85.3383C84.8574 72.1248 84.4675 71.7349 84.4675 71.2539V70.4343C84.4675 69.9534 84.8574 69.5635 85.3383 69.5635H87.0287V72.1248Z" fill="white"/>
<path d="M89.5131 69.5635H86.9519V72.1247H89.5131V69.5635Z" fill="white"/>
<path d="M89.4363 72.1248V70.4343C89.4363 69.9534 89.8261 69.5635 90.3071 69.5635H91.1267C91.6076 69.5635 91.9975 69.9534 91.9975 70.4343V72.1248H89.4363Z" fill="white"/>
<path d="M19.8748 72.7805V73.8793C19.8748 74.2839 20.2026 74.6092 20.6073 74.6092H21.706C22.1132 74.6092 22.4385 74.2814 22.4385 73.8767V72.7805C22.4359 72.3733 22.1081 72.048 21.7034 72.048H20.6073C20.2026 72.048 19.8748 72.3758 19.8748 72.7805Z" fill="white"/>
<path d="M24.8434 74.6093V72.9188C24.8434 72.4379 25.2333 72.048 25.7142 72.048H26.5338C27.0147 72.048 27.4046 72.4379 27.4046 72.9188V74.6093H24.8434Z" fill="white"/>
<path d="M32.3732 74.6093H30.6829C30.2019 74.6093 29.8121 74.2194 29.8121 73.7384V72.9188C29.8121 72.4379 30.2019 72.048 30.6829 72.048H32.3732V74.6093Z" fill="white"/>
<path d="M34.8576 72.048H32.2964V74.6092H34.8576V72.048Z" fill="white"/>
<path d="M37.3419 72.048H34.7808V74.6092H37.3419V72.048Z" fill="white"/>
<path d="M39.8263 72.048H37.2651V74.6092H39.8263V72.048Z" fill="white"/>
<path d="M39.7495 72.048H42.3107V73.7384C42.3107 74.2193 41.9208 74.6092 41.4399 74.6092H39.7495V72.048Z" fill="white"/>
<path d="M47.2024 72.7805V73.8793C47.2024 74.2839 47.5303 74.6092 47.9349 74.6092H49.0337C49.4409 74.6092 49.7662 74.2814 49.7662 73.8767V72.7805C49.7636 72.3733 49.4358 72.048 49.0311 72.048H47.9349C47.5303 72.048 47.2024 72.3758 47.2024 72.7805Z" fill="white"/>
<path d="M59.701 72.048V74.6092H58.0106C57.5297 74.6092 57.1398 74.2193 57.1398 73.7384V72.048H59.701Z" fill="white"/>
<path d="M59.6242 74.6093V72.048H61.3146C61.7955 72.048 62.1854 72.4379 62.1854 72.9188V74.6093H59.6242Z" fill="white"/>
<path d="M69.6384 72.048V74.6092H67.948C67.4671 74.6092 67.0772 74.2193 67.0772 73.7384V72.048H69.6384Z" fill="white"/>
<path d="M72.1227 72.048H69.5615V74.6092H72.1227V72.048Z" fill="white"/>
<path d="M82.0601 72.048H79.4989V74.6092H82.0601V72.048Z" fill="white"/>
<path d="M24.1391 77.0425V77.0937H24.9203V76.3125H24.869C24.869 76.7172 24.5412 77.0425 24.1391 77.0425Z" fill="white"/>
<path d="M27.4046 74.5322H24.8434V77.0935H27.4046V74.5322Z" fill="white"/>
<path d="M39.8263 74.5322V76.2226C39.8263 76.7036 39.4364 77.0935 38.9555 77.0935H38.1359C37.655 77.0935 37.2651 76.7036 37.2651 76.2226V74.5322H39.8263Z" fill="white"/>
<path d="M44.7949 77.0935H42.2337V75.4031C42.2337 74.9221 42.6236 74.5323 43.1045 74.5323H44.7949V77.0935Z" fill="white"/>
<path d="M44.7181 77.0935V74.5323H46.4085C46.8894 74.5323 47.2793 74.9221 47.2793 75.4031V77.0935H44.7181Z" fill="white"/>
<path d="M52.248 77.0935H50.5576C50.0766 77.0935 49.6868 76.7036 49.6868 76.2227V75.4031C49.6868 74.9221 50.0766 74.5323 50.5576 74.5323H52.248V77.0935Z" fill="white"/>
<path d="M54.7323 74.5322H52.1712V77.0935H54.7323V74.5322Z" fill="white"/>
<path d="M54.6555 77.0935V74.5323H56.3459C56.8268 74.5323 57.2167 74.9221 57.2167 75.4031V77.0935H54.6555Z" fill="white"/>
<path d="M58.9199 77.0425V77.0937H59.7011V76.3125H59.6498C59.6498 76.7172 59.322 77.0425 58.9199 77.0425Z" fill="white"/>
<path d="M62.1854 74.5322H59.6242V77.0935H62.1854V74.5322Z" fill="white"/>
<path d="M64.5928 77.0935V75.4031C64.5928 74.9221 64.9827 74.5323 65.4636 74.5323H66.2832C66.7641 74.5323 67.154 74.9221 67.154 75.4031V77.0935H64.5928Z" fill="white"/>
<path d="M72.1227 74.5322H69.5615V77.0935H72.1227V74.5322Z" fill="white"/>
<path d="M74.5302 75.2647V76.3635C74.5302 76.7682 74.8581 77.0935 75.2627 77.0935H76.3615C76.7687 77.0935 77.094 76.7656 77.094 76.361V75.2647C77.0914 74.8575 76.7636 74.5322 76.3589 74.5322H75.2627C74.8581 74.5322 74.5302 74.8601 74.5302 75.2647Z" fill="white"/>
<path d="M82.0601 74.5322H79.4989V77.0935H82.0601V74.5322Z" fill="white"/>
<path d="M81.9833 77.0935V75.4031C81.9833 74.9221 82.3732 74.5323 82.8541 74.5323H83.6737C84.1546 74.5323 84.5445 74.9221 84.5445 75.4031V77.0935H81.9833Z" fill="white"/>
<path d="M89.5131 77.0935H87.8227C87.3418 77.0935 86.9519 76.7036 86.9519 76.2227V75.4031C86.9519 74.9221 87.3418 74.5323 87.8227 74.5323H89.5131V77.0935Z" fill="white"/>
<path d="M89.4363 77.0935V74.5323H91.1267C91.6076 74.5323 91.9975 74.9221 91.9975 75.4031V77.0935H89.4363Z" fill="white"/>
<path d="M21.6548 79.5267V79.5779H22.4359V78.7968H22.3847C22.3847 79.2014 22.0569 79.5267 21.6548 79.5267Z" fill="white"/>
<path d="M24.9202 79.578H22.3591V77.8876C22.3591 77.4066 22.7489 77.0168 23.2299 77.0168H24.9202V79.578Z" fill="white"/>
<path d="M27.4046 77.0166H24.8434V79.5778H27.4046V77.0166Z" fill="white"/>
<path d="M29.812 79.578V77.8876C29.812 77.4066 30.2019 77.0168 30.6828 77.0168H31.5024C31.9833 77.0168 32.3732 77.4066 32.3732 77.8876V79.578H29.812Z" fill="white"/>
<path d="M44.795 77.0166H42.2338V79.5778H44.795V77.0166Z" fill="white"/>
<path d="M47.2793 77.0166H44.7181V79.5778H47.2793V77.0166Z" fill="white"/>
<path d="M57.2167 77.0166H54.6555V79.5778H57.2167V77.0166Z" fill="white"/>
<path d="M59.701 77.0166H57.1398V79.5778H59.701V77.0166Z" fill="white"/>
<path d="M59.6242 77.0166H62.1854V78.707C62.1854 79.188 61.7955 79.5778 61.3146 79.5778H59.6242V77.0166Z" fill="white"/>
<path d="M67.154 77.0166H64.5928V79.5778H67.154V77.0166Z" fill="white"/>
<path d="M68.8572 79.5267V79.5779H69.6384V78.7968H69.5871C69.5871 79.2014 69.2593 79.5267 68.8572 79.5267Z" fill="white"/>
<path d="M72.1227 77.0166H69.5615V79.5778H72.1227V77.0166Z" fill="white"/>
<path d="M78.7946 79.5267V79.5779H79.5757V78.7968H79.5245C79.5245 79.2014 79.1967 79.5267 78.7946 79.5267Z" fill="white"/>
<path d="M82.0601 77.0166H79.4989V79.5778H82.0601V77.0166Z" fill="white"/>
<path d="M91.9974 77.0166V78.707C91.9974 79.188 91.6076 79.5778 91.1266 79.5778H90.3071C89.8261 79.5778 89.4363 79.188 89.4363 78.707V77.0166H91.9974Z" fill="white"/>
<path d="M22.4359 82.0625H19.8747V80.3721C19.8747 79.8911 20.2646 79.5013 20.7455 79.5013H22.4359V82.0625Z" fill="white"/>
<path d="M24.9203 79.5012H22.3591V82.0625H24.9203V79.5012Z" fill="white"/>
<path d="M27.4046 79.5012H24.8434V82.0625H27.4046V79.5012Z" fill="white"/>
<path d="M29.1078 82.0112V82.0624H29.8889V81.2812H29.8377C29.8377 81.6859 29.5099 82.0112 29.1078 82.0112Z" fill="white"/>
<path d="M32.3732 79.5012H29.812V82.0625H32.3732V79.5012Z" fill="white"/>
<path d="M34.8576 79.5012H32.2964V82.0625H34.8576V79.5012Z" fill="white"/>
<path d="M34.7808 82.0625V79.5013H36.4712C36.9521 79.5013 37.342 79.8911 37.342 80.3721V82.0625H34.7808Z" fill="white"/>
<path d="M44.7949 79.5012V82.0625H43.1045C42.6236 82.0625 42.2337 81.6726 42.2337 81.1916V79.5012H44.7949Z" fill="white"/>
<path d="M47.2793 79.5012H44.7181V82.0625H47.2793V79.5012Z" fill="white"/>
<path d="M54.7323 82.0625H53.042C52.561 82.0625 52.1712 81.6726 52.1712 81.1917V80.3721C52.1712 79.8911 52.561 79.5013 53.042 79.5013H54.7323V82.0625Z" fill="white"/>
<path d="M54.6555 79.5012H57.2167V81.1916C57.2167 81.6726 56.8268 82.0625 56.3459 82.0625H54.6555V79.5012Z" fill="white"/>
<path d="M67.154 79.5012V82.0625H65.4636C64.9827 82.0625 64.5928 81.6726 64.5928 81.1916V79.5012H67.154Z" fill="white"/>
<path d="M69.6384 79.5012H67.0772V82.0625H69.6384V79.5012Z" fill="white"/>
<path d="M72.1227 79.5012H69.5615V82.0625H72.1227V79.5012Z" fill="white"/>
<path d="M74.607 79.5012H72.0459V82.0625H74.607V79.5012Z" fill="white"/>
<path d="M77.0914 79.5012H74.5302V82.0625H77.0914V79.5012Z" fill="white"/>
<path d="M79.5757 79.5012H77.0146V82.0625H79.5757V79.5012Z" fill="white"/>
<path d="M82.0601 79.5012H79.4989V82.0625H82.0601V79.5012Z" fill="white"/>
<path d="M87.0287 82.0625H84.4675V80.3721C84.4675 79.8911 84.8574 79.5013 85.3383 79.5013H87.0287V82.0625Z" fill="white"/>
<path d="M86.9519 82.0625V80.3721C86.9519 79.8911 87.3418 79.5013 87.8227 79.5013H88.6423C89.1232 79.5013 89.5131 79.8911 89.5131 80.3721V82.0625H86.9519Z" fill="white"/>
<path d="M22.4359 81.9855H19.8748V84.5467H22.4359V81.9855Z" fill="white"/>
<path d="M24.9203 81.9855H22.3591V84.5467H24.9203V81.9855Z" fill="white"/>
<path d="M27.4046 81.9855H24.8434V84.5467H27.4046V81.9855Z" fill="white"/>
<path d="M29.8889 81.9855H27.3278V84.5467H29.8889V81.9855Z" fill="white"/>
<path d="M32.3732 81.9855H29.812V84.5467H32.3732V81.9855Z" fill="white"/>
<path d="M37.3419 81.9855V84.5467H35.6516C35.1706 84.5467 34.7808 84.1568 34.7808 83.6759V81.9855H37.3419Z" fill="white"/>
<path d="M39.8263 81.9855H37.2651V84.5467H39.8263V81.9855Z" fill="white"/>
<path d="M39.7495 84.5468V81.9855H41.4398C41.9208 81.9855 42.3106 82.3754 42.3106 82.8563V84.5468H39.7495Z" fill="white"/>
<path d="M47.2793 81.9855H44.7181V84.5467H47.2793V81.9855Z" fill="white"/>
<path d="M48.9825 84.4955V84.5467H49.7636V83.7655H49.7124C49.7124 84.1702 49.3846 84.4955 48.9825 84.4955Z" fill="white"/>
<path d="M49.6868 84.5468V82.8563C49.6868 82.3754 50.0767 81.9855 50.5576 81.9855H51.3772C51.8581 81.9855 52.248 82.3754 52.248 82.8563V84.5468H49.6868Z" fill="white"/>
<path d="M59.6242 82.718V83.8168C59.6242 84.2214 59.952 84.5467 60.3567 84.5467H61.4554C61.8626 84.5467 62.1879 84.2189 62.1879 83.8142V82.718C62.1854 82.3108 61.8575 81.9855 61.4529 81.9855H60.3567C59.952 81.9855 59.6242 82.3133 59.6242 82.718Z" fill="white"/>
<path d="M77.0914 81.9855V84.5467H75.401C74.9201 84.5467 74.5302 84.1568 74.5302 83.6759V81.9855H77.0914Z" fill="white"/>
<path d="M79.5757 81.9855H77.0146V84.5467H79.5757V81.9855Z" fill="white"/>
<path d="M79.4989 81.9855H82.0601V83.6759C82.0601 84.1568 81.6702 84.5467 81.1893 84.5467H79.4989V81.9855Z" fill="white"/>
<path d="M83.7633 84.4955V84.5467H84.5445V83.7655H84.4932C84.4932 84.1702 84.1654 84.4955 83.7633 84.4955Z" fill="white"/>
<path d="M87.0288 81.9855H84.4676V84.5467H87.0288V81.9855Z" fill="white"/>
<path d="M22.4359 84.47V87.0312H20.7455C20.2646 87.0312 19.8747 86.6413 19.8747 86.1604V84.47H22.4359Z" fill="white"/>
<path d="M24.9203 84.47H22.3591V87.0312H24.9203V84.47Z" fill="white"/>
<path d="M32.3732 84.47V87.0312H30.6829C30.2019 87.0312 29.8121 86.6413 29.8121 86.1604V84.47H32.3732Z" fill="white"/>
<path d="M32.2964 87.0312V85.3408C32.2964 84.8599 32.6863 84.47 33.1672 84.47H33.9868C34.4677 84.47 34.8576 84.8599 34.8576 85.3408V87.0312H32.2964Z" fill="white"/>
<path d="M42.3107 84.47H39.7495V87.0312H42.3107V84.47Z" fill="white"/>
<path d="M47.2793 84.47V87.0312H45.589C45.108 87.0312 44.7182 86.6413 44.7182 86.1604V84.47H47.2793Z" fill="white"/>
<path d="M49.7636 84.47H47.2024V87.0312H49.7636V84.47Z" fill="white"/>
<path d="M52.248 84.47H49.6868V87.0312H52.248V84.47Z" fill="white"/>
<path d="M52.1712 87.0312V84.47H53.8615C54.3425 84.47 54.7323 84.8599 54.7323 85.3408V87.0312H52.1712Z" fill="white"/>
<path d="M62.1085 85.2025V86.3013C62.1085 86.7059 62.4364 87.0312 62.841 87.0312H63.9398C64.347 87.0312 64.6723 86.7034 64.6723 86.2987V85.2025C64.6697 84.7952 64.3419 84.47 63.9372 84.47H62.841C62.4364 84.47 62.1085 84.7978 62.1085 85.2025Z" fill="white"/>
<path d="M69.6384 87.0312H67.948C67.4671 87.0312 67.0772 86.6414 67.0772 86.1604V85.3408C67.0772 84.8599 67.4671 84.47 67.948 84.47H69.6384V87.0312Z" fill="white"/>
<path d="M72.1227 84.47H69.5615V87.0312H72.1227V84.47Z" fill="white"/>
<path d="M72.0459 87.0312V84.47H73.7362C74.2172 84.47 74.607 84.8599 74.607 85.3408V87.0312H72.0459Z" fill="white"/>
<path d="M79.5757 84.47H77.0146V87.0312H79.5757V84.47Z" fill="white"/>
<path d="M84.5444 87.0312H82.8541C82.3731 87.0312 81.9833 86.6414 81.9833 86.1604V85.3408C81.9833 84.8599 82.3731 84.47 82.8541 84.47H84.5444V87.0312Z" fill="white"/>
<path d="M84.4676 84.47H87.0288V86.1604C87.0288 86.6413 86.6389 87.0312 86.158 87.0312H84.4676V84.47Z" fill="white"/>
<path d="M89.4363 87.0312V85.3408C89.4363 84.8599 89.8261 84.47 90.3071 84.47H91.1267C91.6076 84.47 91.9975 84.8599 91.9975 85.3408V87.0312H89.4363Z" fill="white"/>
<path d="M24.9203 86.9545H22.3591V89.5157H24.9203V86.9545Z" fill="white"/>
<path d="M27.3278 87.687V88.7858C27.3278 89.1904 27.6556 89.5157 28.0603 89.5157H29.159C29.5662 89.5157 29.8915 89.1879 29.8915 88.7832V87.687C29.8889 87.2797 29.5611 86.9545 29.1564 86.9545H28.0603C27.6556 86.9545 27.3278 87.2823 27.3278 87.687Z" fill="white"/>
<path d="M39.8263 89.5155H38.1359C37.655 89.5155 37.2651 89.1256 37.2651 88.6447V87.8251C37.2651 87.3441 37.655 86.9543 38.1359 86.9543H39.8263V89.5155Z" fill="white"/>
<path d="M42.3107 86.9545H39.7495V89.5157H42.3107V86.9545Z" fill="white"/>
<path d="M42.2338 89.5155V87.8251C42.2338 87.3441 42.6237 86.9543 43.1046 86.9543H43.9242C44.4051 86.9543 44.795 87.3441 44.795 87.8251V89.5155H42.2338Z" fill="white"/>
<path d="M49.7636 86.9545V88.6449C49.7636 89.1258 49.3737 89.5157 48.8928 89.5157H48.0732C47.5923 89.5157 47.2024 89.1258 47.2024 88.6449V86.9545H49.7636Z" fill="white"/>
<path d="M54.7323 86.9545V88.6449C54.7323 89.1258 54.3425 89.5157 53.8615 89.5157H53.042C52.561 89.5157 52.1712 89.1258 52.1712 88.6449V86.9545H54.7323Z" fill="white"/>
<path d="M59.6242 89.5155V87.8251C59.6242 87.3441 60.014 86.9543 60.495 86.9543H61.3146C61.7955 86.9543 62.1854 87.3441 62.1854 87.8251V89.5155H59.6242Z" fill="white"/>
<path d="M63.8885 89.4645V89.5157H64.6697V88.7345H64.6185C64.6185 89.1392 64.2906 89.4645 63.8885 89.4645Z" fill="white"/>
<path d="M64.5928 89.5155V87.8251C64.5928 87.3441 64.9827 86.9543 65.4636 86.9543H66.2832C66.7641 86.9543 67.154 87.3441 67.154 87.8251V89.5155H64.5928Z" fill="white"/>
<path d="M72.1227 86.9545V89.5157H70.4323C69.9514 89.5157 69.5615 89.1258 69.5615 88.6449V86.9545H72.1227Z" fill="white"/>
<path d="M74.607 86.9545H72.0459V89.5157H74.607V86.9545Z" fill="white"/>
<path d="M79.5757 86.9545V88.6449C79.5757 89.1258 79.1859 89.5157 78.7049 89.5157H77.8854C77.4044 89.5157 77.0146 89.1258 77.0146 88.6449V86.9545H79.5757Z" fill="white"/>
<path d="M88.7319 89.4645V89.5157H89.5131V88.7345H89.4619C89.4619 89.1392 89.134 89.4645 88.7319 89.4645Z" fill="white"/>
<path d="M91.9974 86.9545H89.4362V89.5157H91.9974V86.9545Z" fill="white"/>
<path d="M24.9202 89.4387V91.1291C24.9202 91.6101 24.5304 92 24.0494 92H23.2299C22.7489 92 22.3591 91.6101 22.3591 91.1291V89.4387H24.9202Z" fill="white"/>
<path d="M29.812 90.1712V91.27C29.812 91.6747 30.1399 92 30.5445 92H31.6433C32.0505 92 32.3758 91.6721 32.3758 91.2675V90.1712C32.3732 89.764 32.0454 89.4387 31.6407 89.4387H30.5445C30.1399 89.4387 29.812 89.7666 29.812 90.1712Z" fill="white"/>
<path d="M34.7808 90.1712V91.27C34.7808 91.6747 35.1086 92 35.5133 92H36.612C37.0192 92 37.3445 91.6721 37.3445 91.2675V90.1712C37.3419 89.764 37.0141 89.4387 36.6094 89.4387H35.5133C35.1086 89.4387 34.7808 89.7666 34.7808 90.1712Z" fill="white"/>
<path d="M42.3106 89.4387V91.1291C42.3106 91.6101 41.9207 92 41.4398 92H40.6202C40.1393 92 39.7494 91.6101 39.7494 91.1291V89.4387H42.3106Z" fill="white"/>
<path d="M62.1854 89.4387V92H60.495C60.0141 92 59.6242 91.6101 59.6242 91.1291V89.4387H62.1854Z" fill="white"/>
<path d="M64.6697 89.4387H62.1085V92H64.6697V89.4387Z" fill="white"/>
<path d="M67.154 89.4387H64.5928V92H67.154V89.4387Z" fill="white"/>
<path d="M67.0772 92V90.3096C67.0772 89.8286 67.4671 89.4388 67.948 89.4388H68.7676C69.2485 89.4388 69.6384 89.8286 69.6384 90.3096V92H67.0772Z" fill="white"/>
<path d="M74.607 89.4387V91.1291C74.607 91.6101 74.2172 92 73.7362 92H72.9166C72.4357 92 72.0458 91.6101 72.0458 91.1291V89.4387H74.607Z" fill="white"/>
<path d="M79.4989 90.1712V91.27C79.4989 91.6747 79.8267 92 80.2314 92H81.3301C81.7374 92 82.0626 91.6721 82.0626 91.2675V90.1712C82.0601 89.764 81.7322 89.4387 81.3276 89.4387H80.2314C79.8267 89.4387 79.4989 89.7666 79.4989 90.1712Z" fill="white"/>
<path d="M87.0287 92H85.3383C84.8574 92 84.4675 91.6101 84.4675 91.1292V90.3096C84.4675 89.8286 84.8574 89.4388 85.3383 89.4388H87.0287V92Z" fill="white"/>
<path d="M89.5131 89.4387H86.9519V92H89.5131V89.4387Z" fill="white"/>
<path d="M89.4362 89.4387H91.9974V91.1291C91.9974 91.6101 91.6076 92 91.1266 92H89.4362V89.4387Z" fill="white"/>
<path d="M15.3671 11.7133V6.21508C15.3671 3.77457 15.0351 3.17909 14.8923 3.03598C14.7492 2.8932 14.1538 2.5612 11.713 2.5612H6.21522C3.77447 2.5612 3.179 2.8932 3.03622 3.03598C2.89344 3.17909 2.56113 3.77457 2.56113 6.21508V11.7133C2.56113 14.1542 2.89344 14.7496 3.03622 14.8927C3.179 15.0352 3.77447 15.3675 6.21522 15.3675H11.713C14.1538 15.3675 14.7492 15.0352 14.8923 14.8927C15.0351 14.7496 15.3671 14.1542 15.3671 11.7133ZM11.713 0C16.7331 0 17.9282 1.19512 17.9282 6.21508C17.9282 11.2354 17.9282 6.69338 17.9282 11.7133C17.9282 16.7336 16.7331 17.9287 11.713 17.9287C6.69319 17.9287 11.235 17.9287 6.21522 17.9287C1.19509 17.9287 0 16.7336 0 11.7133C0 6.69338 0 9.01863 0 6.21508C0 1.19512 1.19509 0 6.21522 0C11.235 0 6.69319 0 11.713 0ZM10.1422 5.12249C12.2938 5.12249 12.8059 5.63496 12.8059 7.78596C12.8059 9.9376 12.8059 7.99113 12.8059 10.1425C12.8059 12.2938 12.2938 12.8062 10.1422 12.8062C7.99091 12.8062 9.93732 12.8062 7.78606 12.8062C5.6348 12.8062 5.12235 12.2938 5.12235 10.1425C5.12235 7.99113 5.12235 8.98757 5.12235 7.78596C5.12235 5.63496 5.6348 5.12249 7.78606 5.12249C9.93732 5.12249 7.99091 5.12249 10.1422 5.12249Z" fill="white"/>
<path d="M89.1289 11.7133V6.21508C89.1289 3.77457 88.797 3.17909 88.6542 3.03598C88.5111 2.8932 87.9156 2.5612 85.4748 2.5612H79.9771C77.5363 2.5612 76.9408 2.8932 76.7981 3.03598C76.6553 3.17909 76.323 3.77457 76.323 6.21508V11.7133C76.323 14.1542 76.6553 14.7496 76.7981 14.8927C76.9408 15.0352 77.5363 15.3675 79.9771 15.3675H85.4748C87.9156 15.3675 88.5111 15.0352 88.6542 14.8927C88.797 14.7496 89.1289 14.1542 89.1289 11.7133ZM85.4748 0C90.495 0 91.6901 1.19512 91.6901 6.21508C91.6901 11.2354 91.6901 6.69338 91.6901 11.7133C91.6901 16.7336 90.495 17.9287 85.4748 17.9287C80.455 17.9287 84.9969 17.9287 79.9771 17.9287C74.9569 17.9287 73.7618 16.7336 73.7618 11.7133C73.7618 6.69338 73.7618 9.01863 73.7618 6.21508C73.7618 1.19512 74.9569 0 79.9771 0C84.9969 0 80.455 0 85.4748 0ZM83.904 5.12249C86.0556 5.12249 86.5677 5.63496 86.5677 7.78596C86.5677 9.9376 86.5677 7.99113 86.5677 10.1425C86.5677 12.2938 86.0556 12.8062 83.904 12.8062C81.7528 12.8062 83.6992 12.8062 81.5479 12.8062C79.3966 12.8062 78.8842 12.2938 78.8842 10.1425C78.8842 7.99113 78.8842 8.98757 78.8842 7.78596C78.8842 5.63496 79.3966 5.12249 81.5479 5.12249C83.6992 5.12249 81.7528 5.12249 83.904 5.12249Z" fill="white"/>
<path d="M15.3671 85.4773V79.979C15.3671 77.5385 15.0351 76.943 14.8923 76.7999C14.7492 76.6571 14.1538 76.3251 11.713 76.3251H6.21522C3.77447 76.3251 3.179 76.6571 3.03622 76.7999C2.89344 76.943 2.56113 77.5385 2.56113 79.979V85.4773C2.56113 87.9181 2.89344 88.5136 3.03622 88.6567C3.179 88.7991 3.77447 89.1314 6.21522 89.1314H11.713C14.1538 89.1314 14.7492 88.7991 14.8923 88.6567C15.0351 88.5136 15.3671 87.9181 15.3671 85.4773ZM11.713 73.7639C16.7331 73.7639 17.9282 74.959 17.9282 79.979C17.9282 84.9993 17.9282 80.4573 17.9282 85.4773C17.9282 90.4975 16.7331 91.6926 11.713 91.6926C6.69319 91.6926 11.235 91.6926 6.21522 91.6926C1.19509 91.6926 0 90.4975 0 85.4773C0 80.4573 0 82.7825 0 79.979C0 74.959 1.19509 73.7639 6.21522 73.7639C11.235 73.7639 6.69319 73.7639 11.713 73.7639ZM10.1422 78.8864C12.2938 78.8864 12.8059 79.3989 12.8059 81.5499C12.8059 83.7015 12.8059 81.7551 12.8059 83.9064C12.8059 86.0577 12.2938 86.5702 10.1422 86.5702C7.99091 86.5702 9.93732 86.5702 7.78606 86.5702C5.6348 86.5702 5.12235 86.0577 5.12235 83.9064C5.12235 81.7551 5.12235 82.7515 5.12235 81.5499C5.12235 79.3989 5.6348 78.8864 7.78606 78.8864C9.93732 78.8864 7.99091 78.8864 10.1422 78.8864Z" fill="white"/>
</svg>
