<svg width="18" height="18" viewBox="0 0 18 18" fill="none" xmlns="http://www.w3.org/2000/svg">
<path d="M12.5211 15.8L4.20001 1M17 14.6C17 15.9255 15.9255 17 14.6 17C13.2745 17 12.2 15.9255 12.2 14.6C12.2 13.2745 13.2745 12.2 14.6 12.2C15.9255 12.2 17 13.2745 17 14.6Z" stroke="white" stroke-width="1.5" stroke-linecap="round"/>
<path d="M5.47891 15.8L13.8 1M0.999988 14.6C0.999988 15.9255 2.0745 17 3.39999 17C4.72547 17 5.79999 15.9255 5.79999 14.6C5.79999 13.2745 4.72547 12.2 3.39999 12.2C2.0745 12.2 0.999988 13.2745 0.999988 14.6Z" stroke="white" stroke-width="1.5" stroke-linecap="round"/>
</svg>
