<svg width="20" height="21" viewBox="0 0 20 21" fill="none" xmlns="http://www.w3.org/2000/svg">
<ellipse cx="9.95004" cy="10.5" rx="2.85" ry="2.85" stroke="black" stroke-width="1.5"/>
<path d="M11.6271 1.14463C11.278 1 10.8353 1 9.95003 1C9.06474 1 8.62209 1 8.27293 1.14463C7.80737 1.33747 7.43749 1.70735 7.24465 2.1729C7.15662 2.38542 7.12218 2.63258 7.10869 2.99309C7.08888 3.5229 6.81718 4.0133 6.35803 4.27838C5.89889 4.54347 5.33835 4.53356 4.86962 4.28582C4.55066 4.11724 4.31939 4.02349 4.09133 3.99347C3.59172 3.92769 3.08646 4.06308 2.68668 4.36984C2.38684 4.59991 2.16552 4.98325 1.72288 5.74994C1.28023 6.51662 1.05891 6.89996 1.00958 7.27466C0.943807 7.77426 1.07919 8.27953 1.38595 8.67931C1.52597 8.86178 1.72275 9.01517 2.02816 9.20707C2.47714 9.48919 2.76603 9.96977 2.766 10.5C2.76597 11.0302 2.4771 11.5107 2.02816 11.7928C1.7227 11.9847 1.52589 12.1381 1.38586 12.3206C1.0791 12.7204 0.943714 13.2257 1.00949 13.7253C1.05882 14.1 1.28014 14.4833 1.72278 15.25C2.16543 16.0167 2.38675 16.4 2.68659 16.6301C3.08637 16.9369 3.59163 17.0722 4.09123 17.0065C4.31929 16.9764 4.55054 16.8827 4.86947 16.7141C5.33823 16.4664 5.89882 16.4565 6.35799 16.7216C6.81716 16.9867 7.08888 17.4771 7.1087 18.007C7.12218 18.3674 7.15663 18.6146 7.24465 18.8271C7.43749 19.2927 7.80737 19.6625 8.27293 19.8554C8.62209 20 9.06474 20 9.95003 20C10.8353 20 11.278 20 11.6271 19.8554C12.0927 19.6625 12.4626 19.2927 12.6554 18.8271C12.7434 18.6146 12.7779 18.3674 12.7914 18.0069C12.8112 17.4771 13.0828 16.9867 13.542 16.7216C14.0011 16.4564 14.5617 16.4663 15.0305 16.7141C15.3494 16.8827 15.5807 16.9764 15.8087 17.0064C16.3083 17.0722 16.8136 16.9368 17.2134 16.63C17.5132 16.4 17.7345 16.0166 18.1772 15.2499C18.6198 14.4833 18.8411 14.0999 18.8905 13.7252C18.9562 13.2256 18.8209 12.7203 18.5141 12.3206C18.3741 12.1381 18.1773 11.9847 17.8718 11.7928C17.4229 11.5107 17.134 11.0301 17.134 10.4999C17.1341 9.96976 17.4229 9.48928 17.8718 9.20723C18.1773 9.01529 18.3742 8.86187 18.5142 8.67937C18.821 8.27959 18.9563 7.77433 18.8906 7.27473C18.8412 6.90002 18.6199 6.51668 18.1773 5.75C17.7346 4.98332 17.5133 4.59998 17.2135 4.3699C16.8137 4.06314 16.3084 3.92776 15.8088 3.99353C15.5808 4.02355 15.3495 4.11729 15.0306 4.28586C14.5618 4.53361 14.0012 4.54352 13.5421 4.27841C13.0829 4.01331 12.8112 3.52288 12.7914 2.99304C12.7779 2.63255 12.7434 2.38541 12.6554 2.1729C12.4626 1.70735 12.0927 1.33747 11.6271 1.14463Z" stroke="black" stroke-width="1.5"/>
</svg>
